<mxfile host="app.diagrams.net" modified="2022-03-01T02:34:47.226Z" agent="5.0 (Macintosh; Intel Mac OS X 10_15_7) AppleWebKit/537.36 (KHTML, like Gecko) Chrome/98.0.4758.109 Safari/537.36" etag="DPlgyw_qGeLjED0bCiPs" version="16.6.4" type="github" pages="5">
  <diagram id="piDafpqhtRUU5qUU-vj8" name="第 1 页">
    <mxGraphModel dx="1598" dy="1273" grid="1" gridSize="10" guides="1" tooltips="1" connect="1" arrows="1" fold="1" page="1" pageScale="1" pageWidth="827" pageHeight="1169" math="0" shadow="0">
      <root>
        <mxCell id="0" />
        <mxCell id="1" parent="0" />
        <mxCell id="QCGSpq1cBCFL9giMwPIF-8" value="情形二" style="text;html=1;strokeColor=none;fillColor=none;align=center;verticalAlign=middle;whiteSpace=wrap;rounded=0;" parent="1" vertex="1">
          <mxGeometry x="810" y="381" width="60" height="30" as="geometry" />
        </mxCell>
        <mxCell id="QCGSpq1cBCFL9giMwPIF-9" value="情形三" style="text;html=1;strokeColor=none;fillColor=none;align=center;verticalAlign=middle;whiteSpace=wrap;rounded=0;" parent="1" vertex="1">
          <mxGeometry x="820" y="679" width="60" height="30" as="geometry" />
        </mxCell>
        <mxCell id="QCGSpq1cBCFL9giMwPIF-24" value="情形一" style="text;html=1;strokeColor=none;fillColor=none;align=center;verticalAlign=middle;whiteSpace=wrap;rounded=0;" parent="1" vertex="1">
          <mxGeometry x="820" y="121" width="60" height="30" as="geometry" />
        </mxCell>
        <mxCell id="QCGSpq1cBCFL9giMwPIF-27" value="" style="group" parent="1" vertex="1" connectable="0">
          <mxGeometry x="400" y="410" width="930" height="250" as="geometry" />
        </mxCell>
        <mxCell id="QCGSpq1cBCFL9giMwPIF-2" value="" style="rounded=0;whiteSpace=wrap;html=1;" parent="QCGSpq1cBCFL9giMwPIF-27" vertex="1">
          <mxGeometry width="930" height="250" as="geometry" />
        </mxCell>
        <mxCell id="QCGSpq1cBCFL9giMwPIF-5" value="" style="rounded=0;whiteSpace=wrap;html=1;" parent="QCGSpq1cBCFL9giMwPIF-27" vertex="1">
          <mxGeometry x="35.09433962264151" y="8.333333333333334" width="184.24528301886792" height="91.66666666666666" as="geometry" />
        </mxCell>
        <mxCell id="QCGSpq1cBCFL9giMwPIF-6" value="" style="rounded=0;whiteSpace=wrap;html=1;" parent="QCGSpq1cBCFL9giMwPIF-27" vertex="1">
          <mxGeometry x="350.94339622641513" y="6.666666666666667" width="175.47169811320757" height="41.666666666666664" as="geometry" />
        </mxCell>
        <mxCell id="QCGSpq1cBCFL9giMwPIF-7" value="" style="rounded=0;whiteSpace=wrap;html=1;" parent="QCGSpq1cBCFL9giMwPIF-27" vertex="1">
          <mxGeometry x="359.7169811320755" y="66.66666666666667" width="263.20754716981133" height="41.666666666666664" as="geometry" />
        </mxCell>
        <mxCell id="QCGSpq1cBCFL9giMwPIF-11" value="" style="rounded=0;whiteSpace=wrap;html=1;" parent="QCGSpq1cBCFL9giMwPIF-27" vertex="1">
          <mxGeometry x="8.773584905660378" y="126.66666666666667" width="271.9811320754717" height="108.33333333333333" as="geometry" />
        </mxCell>
        <mxCell id="QCGSpq1cBCFL9giMwPIF-12" value="" style="rounded=0;whiteSpace=wrap;html=1;" parent="QCGSpq1cBCFL9giMwPIF-27" vertex="1">
          <mxGeometry x="386.0377358490566" y="128.33333333333334" width="438.6792452830189" height="108.33333333333333" as="geometry" />
        </mxCell>
        <mxCell id="QCGSpq1cBCFL9giMwPIF-13" value="主轨道" style="text;strokeColor=none;fillColor=none;html=1;fontSize=24;fontStyle=0;verticalAlign=middle;align=center;fontColor=#CCCCCC;" parent="QCGSpq1cBCFL9giMwPIF-27" vertex="1">
          <mxGeometry x="359.7169811320755" y="175" width="87.73584905660378" height="33.333333333333336" as="geometry" />
        </mxCell>
        <mxCell id="QCGSpq1cBCFL9giMwPIF-15" value="覆盖轨道" style="text;strokeColor=none;fillColor=none;html=1;fontSize=24;fontStyle=0;verticalAlign=middle;align=center;fontColor=#CCCCCC;" parent="QCGSpq1cBCFL9giMwPIF-27" vertex="1">
          <mxGeometry x="359.7169811320755" y="39.16666666666667" width="87.73584905660378" height="33.333333333333336" as="geometry" />
        </mxCell>
        <mxCell id="QCGSpq1cBCFL9giMwPIF-3" value="" style="endArrow=none;html=1;rounded=0;exitX=0.001;exitY=0.447;exitDx=0;exitDy=0;exitPerimeter=0;entryX=1.001;entryY=0.45;entryDx=0;entryDy=0;entryPerimeter=0;" parent="QCGSpq1cBCFL9giMwPIF-27" source="QCGSpq1cBCFL9giMwPIF-2" target="QCGSpq1cBCFL9giMwPIF-2" edge="1">
          <mxGeometry width="50" height="50" relative="1" as="geometry">
            <mxPoint x="807.1698113207548" y="691.6666666666666" as="sourcePoint" />
            <mxPoint x="1509.056603773585" y="682.5" as="targetPoint" />
          </mxGeometry>
        </mxCell>
        <mxCell id="QCGSpq1cBCFL9giMwPIF-17" value="" style="endArrow=none;dashed=1;html=1;rounded=0;exitX=0;exitY=0.25;exitDx=0;exitDy=0;entryX=1;entryY=0.25;entryDx=0;entryDy=0;" parent="QCGSpq1cBCFL9giMwPIF-27" source="QCGSpq1cBCFL9giMwPIF-2" target="QCGSpq1cBCFL9giMwPIF-2" edge="1">
          <mxGeometry width="50" height="50" relative="1" as="geometry">
            <mxPoint x="1026.5094339622642" y="587.5" as="sourcePoint" />
            <mxPoint x="1070.3773584905662" y="545.8333333333334" as="targetPoint" />
          </mxGeometry>
        </mxCell>
        <mxCell id="QCGSpq1cBCFL9giMwPIF-28" value="" style="group" parent="1" vertex="1" connectable="0">
          <mxGeometry x="400" y="710" width="930" height="270" as="geometry" />
        </mxCell>
        <mxCell id="R_6pl2Yg3VMVrVAVZdPq-2" value="" style="rounded=0;whiteSpace=wrap;html=1;" parent="QCGSpq1cBCFL9giMwPIF-28" vertex="1">
          <mxGeometry width="930" height="270" as="geometry" />
        </mxCell>
        <mxCell id="R_6pl2Yg3VMVrVAVZdPq-11" value="" style="rounded=0;whiteSpace=wrap;html=1;" parent="QCGSpq1cBCFL9giMwPIF-28" vertex="1">
          <mxGeometry x="21.056603773584907" y="135" width="250.9245283018868" height="117" as="geometry" />
        </mxCell>
        <mxCell id="R_6pl2Yg3VMVrVAVZdPq-13" value="" style="rounded=0;whiteSpace=wrap;html=1;" parent="QCGSpq1cBCFL9giMwPIF-28" vertex="1">
          <mxGeometry x="508.8679245283019" y="135" width="250.9245283018868" height="117" as="geometry" />
        </mxCell>
        <mxCell id="R_6pl2Yg3VMVrVAVZdPq-14" value="" style="rounded=0;whiteSpace=wrap;html=1;" parent="QCGSpq1cBCFL9giMwPIF-28" vertex="1">
          <mxGeometry x="43.86792452830189" y="8.999999999999998" width="193.0188679245283" height="98.99999999999999" as="geometry" />
        </mxCell>
        <mxCell id="R_6pl2Yg3VMVrVAVZdPq-15" value="" style="rounded=0;whiteSpace=wrap;html=1;" parent="QCGSpq1cBCFL9giMwPIF-28" vertex="1">
          <mxGeometry x="289.52830188679246" y="47.7" width="184.24528301886792" height="62.99999999999999" as="geometry" />
        </mxCell>
        <mxCell id="R_6pl2Yg3VMVrVAVZdPq-19" value="" style="rounded=0;whiteSpace=wrap;html=1;" parent="QCGSpq1cBCFL9giMwPIF-28" vertex="1">
          <mxGeometry x="535.1886792452831" y="8.999999999999998" width="105.28301886792453" height="22.5" as="geometry" />
        </mxCell>
        <mxCell id="R_6pl2Yg3VMVrVAVZdPq-20" value="" style="rounded=0;whiteSpace=wrap;html=1;" parent="QCGSpq1cBCFL9giMwPIF-28" vertex="1">
          <mxGeometry x="535.1886792452831" y="49.949999999999996" width="175.47169811320757" height="22.5" as="geometry" />
        </mxCell>
        <mxCell id="R_6pl2Yg3VMVrVAVZdPq-21" value="" style="rounded=0;whiteSpace=wrap;html=1;" parent="QCGSpq1cBCFL9giMwPIF-28" vertex="1">
          <mxGeometry x="570.2830188679245" y="88.19999999999999" width="105.28301886792453" height="22.5" as="geometry" />
        </mxCell>
        <mxCell id="R_6pl2Yg3VMVrVAVZdPq-24" value="覆盖轨道" style="text;strokeColor=none;fillColor=none;html=1;fontSize=24;fontStyle=0;verticalAlign=middle;align=center;fontColor=#CCCCCC;" parent="QCGSpq1cBCFL9giMwPIF-28" vertex="1">
          <mxGeometry x="386.0377358490566" y="49.49999999999999" width="87.73584905660378" height="35.99999999999999" as="geometry" />
        </mxCell>
        <mxCell id="R_6pl2Yg3VMVrVAVZdPq-25" value="主轨道" style="text;strokeColor=none;fillColor=none;html=1;fontSize=24;fontStyle=0;verticalAlign=middle;align=center;fontColor=#CCCCCC;" parent="QCGSpq1cBCFL9giMwPIF-28" vertex="1">
          <mxGeometry x="386.0377358490566" y="175.5" width="87.73584905660378" height="35.99999999999999" as="geometry" />
        </mxCell>
        <mxCell id="UkJWMk0t9I_6u5ez8XNW-1" value="" style="endArrow=none;html=1;rounded=0;exitX=0.001;exitY=0.447;exitDx=0;exitDy=0;exitPerimeter=0;entryX=1;entryY=0.443;entryDx=0;entryDy=0;entryPerimeter=0;" parent="QCGSpq1cBCFL9giMwPIF-28" source="R_6pl2Yg3VMVrVAVZdPq-2" target="R_6pl2Yg3VMVrVAVZdPq-2" edge="1">
          <mxGeometry width="50" height="50" relative="1" as="geometry">
            <mxPoint x="465" y="445.5" as="sourcePoint" />
            <mxPoint x="1166.8867924528302" y="435.59999999999997" as="targetPoint" />
          </mxGeometry>
        </mxCell>
        <mxCell id="UkJWMk0t9I_6u5ez8XNW-2" value="" style="endArrow=none;dashed=1;html=1;rounded=0;exitX=0;exitY=0.15;exitDx=0;exitDy=0;exitPerimeter=0;entryX=1;entryY=0.143;entryDx=0;entryDy=0;entryPerimeter=0;" parent="QCGSpq1cBCFL9giMwPIF-28" source="R_6pl2Yg3VMVrVAVZdPq-2" target="R_6pl2Yg3VMVrVAVZdPq-2" edge="1">
          <mxGeometry width="50" height="50" relative="1" as="geometry">
            <mxPoint x="684.3396226415094" y="602.9999999999999" as="sourcePoint" />
            <mxPoint x="728.2075471698114" y="558" as="targetPoint" />
          </mxGeometry>
        </mxCell>
        <mxCell id="UkJWMk0t9I_6u5ez8XNW-3" value="" style="endArrow=none;dashed=1;html=1;rounded=0;entryX=1;entryY=0.303;entryDx=0;entryDy=0;entryPerimeter=0;exitX=-0.001;exitY=0.307;exitDx=0;exitDy=0;exitPerimeter=0;" parent="QCGSpq1cBCFL9giMwPIF-28" source="R_6pl2Yg3VMVrVAVZdPq-2" target="R_6pl2Yg3VMVrVAVZdPq-2" edge="1">
          <mxGeometry width="50" height="50" relative="1" as="geometry">
            <mxPoint x="114.05660377358491" y="432" as="sourcePoint" />
            <mxPoint x="157.9245283018868" y="387" as="targetPoint" />
          </mxGeometry>
        </mxCell>
        <mxCell id="hlWjCBcUQzEb_LMS3DoF-1" value="" style="group" parent="1" vertex="1" connectable="0">
          <mxGeometry x="400" y="150" width="930" height="220" as="geometry" />
        </mxCell>
        <mxCell id="QCGSpq1cBCFL9giMwPIF-18" value="" style="rounded=0;whiteSpace=wrap;html=1;" parent="hlWjCBcUQzEb_LMS3DoF-1" vertex="1">
          <mxGeometry width="930" height="220" as="geometry" />
        </mxCell>
        <mxCell id="QCGSpq1cBCFL9giMwPIF-19" value="" style="endArrow=none;html=1;rounded=0;exitX=0;exitY=0.5;exitDx=0;exitDy=0;" parent="hlWjCBcUQzEb_LMS3DoF-1" source="QCGSpq1cBCFL9giMwPIF-18" edge="1">
          <mxGeometry width="50" height="50" relative="1" as="geometry">
            <mxPoint x="228.11320754716982" y="121" as="sourcePoint" />
            <mxPoint x="930" y="112.93333333333334" as="targetPoint" />
          </mxGeometry>
        </mxCell>
        <mxCell id="QCGSpq1cBCFL9giMwPIF-20" value="" style="rounded=0;whiteSpace=wrap;html=1;" parent="hlWjCBcUQzEb_LMS3DoF-1" vertex="1">
          <mxGeometry x="17.547169811320757" y="117.33333333333333" width="280.7547169811321" height="95.33333333333333" as="geometry" />
        </mxCell>
        <mxCell id="QCGSpq1cBCFL9giMwPIF-21" value="" style="rounded=0;whiteSpace=wrap;html=1;" parent="hlWjCBcUQzEb_LMS3DoF-1" vertex="1">
          <mxGeometry x="307.0754716981132" y="117.33333333333333" width="280.7547169811321" height="95.33333333333333" as="geometry" />
        </mxCell>
        <mxCell id="QCGSpq1cBCFL9giMwPIF-22" value="" style="rounded=0;whiteSpace=wrap;html=1;" parent="hlWjCBcUQzEb_LMS3DoF-1" vertex="1">
          <mxGeometry x="157.92452830188682" y="7.333333333333333" width="280.7547169811321" height="95.33333333333333" as="geometry" />
        </mxCell>
        <mxCell id="QCGSpq1cBCFL9giMwPIF-23" value="" style="rounded=0;whiteSpace=wrap;html=1;" parent="hlWjCBcUQzEb_LMS3DoF-1" vertex="1">
          <mxGeometry x="447.4528301886793" y="7.333333333333333" width="280.7547169811321" height="95.33333333333333" as="geometry" />
        </mxCell>
        <mxCell id="QCGSpq1cBCFL9giMwPIF-25" value="覆盖轨道" style="text;strokeColor=none;fillColor=none;html=1;fontSize=24;fontStyle=0;verticalAlign=middle;align=center;fontColor=#CCCCCC;" parent="hlWjCBcUQzEb_LMS3DoF-1" vertex="1">
          <mxGeometry x="387.79245283018867" y="51.33333333333333" width="87.73584905660378" height="29.333333333333332" as="geometry" />
        </mxCell>
        <mxCell id="QCGSpq1cBCFL9giMwPIF-26" value="主轨道" style="text;strokeColor=none;fillColor=none;html=1;fontSize=24;fontStyle=0;verticalAlign=middle;align=center;fontColor=#CCCCCC;" parent="hlWjCBcUQzEb_LMS3DoF-1" vertex="1">
          <mxGeometry x="394.811320754717" y="161.33333333333331" width="87.73584905660378" height="29.333333333333332" as="geometry" />
        </mxCell>
      </root>
    </mxGraphModel>
  </diagram>
  <diagram id="DYRDgOUpT20QgEPOvxxA" name="第 2 页">
    <mxGraphModel dx="1598" dy="1273" grid="1" gridSize="10" guides="1" tooltips="1" connect="1" arrows="1" fold="1" page="1" pageScale="1" pageWidth="850" pageHeight="1100" math="0" shadow="0">
      <root>
        <mxCell id="zi0aeQebYsLUy0vvX7ST-0" />
        <mxCell id="zi0aeQebYsLUy0vvX7ST-1" parent="zi0aeQebYsLUy0vvX7ST-0" />
        <mxCell id="zi0aeQebYsLUy0vvX7ST-2" value="情形一" style="ellipse;whiteSpace=wrap;html=1;fillColor=#008a00;fontColor=#ffffff;strokeColor=#005700;" parent="zi0aeQebYsLUy0vvX7ST-1" vertex="1">
          <mxGeometry x="80" y="380" width="180" height="100" as="geometry" />
        </mxCell>
        <mxCell id="zi0aeQebYsLUy0vvX7ST-3" value="情形三" style="ellipse;whiteSpace=wrap;html=1;fillColor=#008a00;fontColor=#ffffff;strokeColor=#005700;" parent="zi0aeQebYsLUy0vvX7ST-1" vertex="1">
          <mxGeometry x="330" y="210" width="180" height="80" as="geometry" />
        </mxCell>
        <mxCell id="zi0aeQebYsLUy0vvX7ST-5" value="" style="endArrow=classic;html=1;rounded=0;sketch=0;entryX=0.263;entryY=1;entryDx=0;entryDy=0;exitX=1;exitY=0;exitDx=0;exitDy=0;entryPerimeter=0;" parent="zi0aeQebYsLUy0vvX7ST-1" source="zi0aeQebYsLUy0vvX7ST-2" target="zi0aeQebYsLUy0vvX7ST-3" edge="1">
          <mxGeometry width="50" height="50" relative="1" as="geometry">
            <mxPoint x="340" y="570" as="sourcePoint" />
            <mxPoint x="390" y="520" as="targetPoint" />
          </mxGeometry>
        </mxCell>
        <mxCell id="zi0aeQebYsLUy0vvX7ST-12" value="加轨道" style="edgeLabel;html=1;align=center;verticalAlign=middle;resizable=0;points=[];" parent="zi0aeQebYsLUy0vvX7ST-5" vertex="1" connectable="0">
          <mxGeometry x="-0.0335" y="2" relative="1" as="geometry">
            <mxPoint as="offset" />
          </mxGeometry>
        </mxCell>
        <mxCell id="zi0aeQebYsLUy0vvX7ST-7" value="情形二" style="ellipse;whiteSpace=wrap;html=1;fillColor=#008a00;fontColor=#ffffff;strokeColor=#005700;" parent="zi0aeQebYsLUy0vvX7ST-1" vertex="1">
          <mxGeometry x="570" y="385" width="190" height="90" as="geometry" />
        </mxCell>
        <mxCell id="zi0aeQebYsLUy0vvX7ST-8" value="" style="endArrow=classic;html=1;rounded=0;sketch=0;exitX=0.767;exitY=0.086;exitDx=0;exitDy=0;entryX=0.937;entryY=0.733;entryDx=0;entryDy=0;entryPerimeter=0;exitPerimeter=0;" parent="zi0aeQebYsLUy0vvX7ST-1" source="zi0aeQebYsLUy0vvX7ST-7" target="zi0aeQebYsLUy0vvX7ST-3" edge="1">
          <mxGeometry width="50" height="50" relative="1" as="geometry">
            <mxPoint x="220" y="540" as="sourcePoint" />
            <mxPoint x="562" y="370" as="targetPoint" />
          </mxGeometry>
        </mxCell>
        <mxCell id="zi0aeQebYsLUy0vvX7ST-13" value="加轨道" style="edgeLabel;html=1;align=center;verticalAlign=middle;resizable=0;points=[];" parent="zi0aeQebYsLUy0vvX7ST-8" vertex="1" connectable="0">
          <mxGeometry x="0.0967" y="1" relative="1" as="geometry">
            <mxPoint as="offset" />
          </mxGeometry>
        </mxCell>
        <mxCell id="zi0aeQebYsLUy0vvX7ST-9" value="" style="endArrow=classic;html=1;rounded=0;sketch=0;exitX=0.711;exitY=0.975;exitDx=0;exitDy=0;exitPerimeter=0;entryX=0.343;entryY=0.036;entryDx=0;entryDy=0;entryPerimeter=0;" parent="zi0aeQebYsLUy0vvX7ST-1" source="zi0aeQebYsLUy0vvX7ST-3" target="zi0aeQebYsLUy0vvX7ST-7" edge="1">
          <mxGeometry width="50" height="50" relative="1" as="geometry">
            <mxPoint x="509.9" y="410" as="sourcePoint" />
            <mxPoint x="240.00213572800513" y="610.2468025243834" as="targetPoint" />
          </mxGeometry>
        </mxCell>
        <mxCell id="zi0aeQebYsLUy0vvX7ST-14" value="减轨道" style="edgeLabel;html=1;align=center;verticalAlign=middle;resizable=0;points=[];" parent="zi0aeQebYsLUy0vvX7ST-9" vertex="1" connectable="0">
          <mxGeometry x="-0.0308" y="1" relative="1" as="geometry">
            <mxPoint as="offset" />
          </mxGeometry>
        </mxCell>
        <mxCell id="zi0aeQebYsLUy0vvX7ST-10" value="压低块高度" style="endArrow=classic;html=1;rounded=0;sketch=0;entryX=0;entryY=0.5;entryDx=0;entryDy=0;exitX=1;exitY=0.5;exitDx=0;exitDy=0;" parent="zi0aeQebYsLUy0vvX7ST-1" source="zi0aeQebYsLUy0vvX7ST-2" target="zi0aeQebYsLUy0vvX7ST-7" edge="1">
          <mxGeometry width="50" height="50" relative="1" as="geometry">
            <mxPoint x="250" y="695.72" as="sourcePoint" />
            <mxPoint x="447.57359312880726" y="404.0042712474617" as="targetPoint" />
          </mxGeometry>
        </mxCell>
        <mxCell id="zi0aeQebYsLUy0vvX7ST-11" value="" style="endArrow=classic;html=1;rounded=0;sketch=0;exitX=0;exitY=1;exitDx=0;exitDy=0;entryX=1;entryY=1;entryDx=0;entryDy=0;" parent="zi0aeQebYsLUy0vvX7ST-1" source="zi0aeQebYsLUy0vvX7ST-7" target="zi0aeQebYsLUy0vvX7ST-2" edge="1">
          <mxGeometry width="50" height="50" relative="1" as="geometry">
            <mxPoint x="439.99640687119273" y="783.4357287525379" as="sourcePoint" />
            <mxPoint x="259.99640687119273" y="510.00427124746193" as="targetPoint" />
          </mxGeometry>
        </mxCell>
        <mxCell id="zi0aeQebYsLUy0vvX7ST-15" value="减轨道" style="edgeLabel;html=1;align=center;verticalAlign=middle;resizable=0;points=[];" parent="zi0aeQebYsLUy0vvX7ST-11" vertex="1" connectable="0">
          <mxGeometry x="0.0079" y="-4" relative="1" as="geometry">
            <mxPoint as="offset" />
          </mxGeometry>
        </mxCell>
      </root>
    </mxGraphModel>
  </diagram>
  <diagram name="Page-1" id="-DRnvCnWD3fNXc-v6CgT">
    <mxGraphModel dx="2425" dy="1273" grid="1" gridSize="10" guides="1" tooltips="1" connect="1" arrows="1" fold="1" page="1" pageScale="1" pageWidth="827" pageHeight="1169" math="0" shadow="0">
      <root>
        <mxCell id="WIyWlLk6GJQsqaUBKTNV-0" />
        <mxCell id="WIyWlLk6GJQsqaUBKTNV-1" parent="WIyWlLk6GJQsqaUBKTNV-0" />
        <mxCell id="WIyWlLk6GJQsqaUBKTNV-2" value="" style="rounded=0;html=1;jettySize=auto;orthogonalLoop=1;fontSize=11;endArrow=block;endFill=0;endSize=8;strokeWidth=1;shadow=0;labelBackgroundColor=none;edgeStyle=orthogonalEdgeStyle;" parent="WIyWlLk6GJQsqaUBKTNV-1" source="WIyWlLk6GJQsqaUBKTNV-3" target="WIyWlLk6GJQsqaUBKTNV-6" edge="1">
          <mxGeometry relative="1" as="geometry" />
        </mxCell>
        <mxCell id="WIyWlLk6GJQsqaUBKTNV-3" value="开始拖资源到时间轴" style="rounded=1;whiteSpace=wrap;html=1;fontSize=12;glass=0;strokeWidth=1;shadow=0;fillColor=#008a00;strokeColor=#005700;fontColor=#ffffff;" parent="WIyWlLk6GJQsqaUBKTNV-1" vertex="1">
          <mxGeometry x="175" y="50" width="120" height="40" as="geometry" />
        </mxCell>
        <mxCell id="WIyWlLk6GJQsqaUBKTNV-4" value="Yes" style="rounded=0;html=1;jettySize=auto;orthogonalLoop=1;fontSize=11;endArrow=block;endFill=0;endSize=8;strokeWidth=1;shadow=0;labelBackgroundColor=none;edgeStyle=orthogonalEdgeStyle;" parent="WIyWlLk6GJQsqaUBKTNV-1" source="WIyWlLk6GJQsqaUBKTNV-6" target="WIyWlLk6GJQsqaUBKTNV-10" edge="1">
          <mxGeometry y="20" relative="1" as="geometry">
            <mxPoint as="offset" />
          </mxGeometry>
        </mxCell>
        <mxCell id="WIyWlLk6GJQsqaUBKTNV-6" value="是否接受&lt;br&gt;该类型资源" style="rhombus;whiteSpace=wrap;html=1;shadow=0;fontFamily=Helvetica;fontSize=12;align=center;strokeWidth=1;spacing=6;spacingTop=-4;fillColor=#008a00;fontColor=#ffffff;strokeColor=#005700;" parent="WIyWlLk6GJQsqaUBKTNV-1" vertex="1">
          <mxGeometry x="175" y="160" width="120" height="100" as="geometry" />
        </mxCell>
        <mxCell id="WIyWlLk6GJQsqaUBKTNV-8" value="Yes" style="rounded=0;html=1;jettySize=auto;orthogonalLoop=1;fontSize=11;endArrow=block;endFill=0;endSize=8;strokeWidth=1;shadow=0;labelBackgroundColor=none;edgeStyle=orthogonalEdgeStyle;entryX=0.5;entryY=0;entryDx=0;entryDy=0;" parent="WIyWlLk6GJQsqaUBKTNV-1" source="WIyWlLk6GJQsqaUBKTNV-10" target="kVo2EOnCKwho9ZSmZPj_-33" edge="1">
          <mxGeometry x="0.3333" y="20" relative="1" as="geometry">
            <mxPoint as="offset" />
          </mxGeometry>
        </mxCell>
        <mxCell id="WIyWlLk6GJQsqaUBKTNV-10" value="是否包含视觉资源" style="rhombus;whiteSpace=wrap;html=1;shadow=0;fontFamily=Helvetica;fontSize=12;align=center;strokeWidth=1;spacing=6;spacingTop=-4;fillColor=#008a00;fontColor=#ffffff;strokeColor=#005700;" parent="WIyWlLk6GJQsqaUBKTNV-1" vertex="1">
          <mxGeometry x="180" y="310" width="110" height="110" as="geometry" />
        </mxCell>
        <mxCell id="kihT8yTP-zsvNt_6NwiB-5" value="" style="edgeStyle=orthogonalEdgeStyle;rounded=0;orthogonalLoop=1;jettySize=auto;html=1;entryX=1;entryY=0.5;entryDx=0;entryDy=0;endArrow=block;endFill=0;" parent="WIyWlLk6GJQsqaUBKTNV-1" source="WIyWlLk6GJQsqaUBKTNV-11" target="VnIIeza6wGG-whXCrfQa-4" edge="1">
          <mxGeometry relative="1" as="geometry">
            <mxPoint x="65" y="695" as="targetPoint" />
          </mxGeometry>
        </mxCell>
        <mxCell id="kihT8yTP-zsvNt_6NwiB-6" value="No" style="edgeLabel;html=1;align=center;verticalAlign=middle;resizable=0;points=[];" parent="kihT8yTP-zsvNt_6NwiB-5" vertex="1" connectable="0">
          <mxGeometry x="0.0353" y="-1" relative="1" as="geometry">
            <mxPoint y="-14" as="offset" />
          </mxGeometry>
        </mxCell>
        <mxCell id="WIyWlLk6GJQsqaUBKTNV-11" value="鼠标在主轨道&lt;br&gt;及以上位置" style="rhombus;whiteSpace=wrap;html=1;rounded=0;fillColor=#008a00;fontColor=#ffffff;strokeColor=#005700;" parent="WIyWlLk6GJQsqaUBKTNV-1" vertex="1">
          <mxGeometry x="170" y="640" width="130" height="110" as="geometry" />
        </mxCell>
        <mxCell id="kVo2EOnCKwho9ZSmZPj_-0" value="鼠标在轨道&lt;br&gt;中间区域" style="rhombus;whiteSpace=wrap;html=1;rounded=0;fillColor=#008a00;fontColor=#ffffff;strokeColor=#005700;" parent="WIyWlLk6GJQsqaUBKTNV-1" vertex="1">
          <mxGeometry x="177.5" y="850" width="115" height="90" as="geometry" />
        </mxCell>
        <mxCell id="kVo2EOnCKwho9ZSmZPj_-3" value="Yes" style="rounded=0;html=1;jettySize=auto;orthogonalLoop=1;fontSize=11;endArrow=block;endFill=0;endSize=8;strokeWidth=1;shadow=0;labelBackgroundColor=none;edgeStyle=orthogonalEdgeStyle;exitX=0.5;exitY=1;exitDx=0;exitDy=0;entryX=0.5;entryY=0;entryDx=0;entryDy=0;" parent="WIyWlLk6GJQsqaUBKTNV-1" source="WIyWlLk6GJQsqaUBKTNV-11" target="kVo2EOnCKwho9ZSmZPj_-0" edge="1">
          <mxGeometry x="0.3333" y="20" relative="1" as="geometry">
            <mxPoint as="offset" />
            <mxPoint x="245" y="605" as="sourcePoint" />
            <mxPoint x="245" y="685" as="targetPoint" />
          </mxGeometry>
        </mxCell>
        <mxCell id="kVo2EOnCKwho9ZSmZPj_-4" value="Yes" style="rounded=0;html=1;jettySize=auto;orthogonalLoop=1;fontSize=11;endArrow=block;endFill=0;endSize=8;strokeWidth=1;shadow=0;labelBackgroundColor=none;edgeStyle=orthogonalEdgeStyle;exitX=0.5;exitY=1;exitDx=0;exitDy=0;entryX=0.5;entryY=0;entryDx=0;entryDy=0;" parent="WIyWlLk6GJQsqaUBKTNV-1" source="kVo2EOnCKwho9ZSmZPj_-0" target="kVo2EOnCKwho9ZSmZPj_-5" edge="1">
          <mxGeometry x="0.3333" y="20" relative="1" as="geometry">
            <mxPoint as="offset" />
            <mxPoint x="245" y="725" as="sourcePoint" />
            <mxPoint x="235" y="915" as="targetPoint" />
          </mxGeometry>
        </mxCell>
        <mxCell id="kVo2EOnCKwho9ZSmZPj_-5" value="是否存在资源重叠" style="rhombus;whiteSpace=wrap;html=1;rounded=0;fillColor=#008a00;fontColor=#ffffff;strokeColor=#005700;" parent="WIyWlLk6GJQsqaUBKTNV-1" vertex="1">
          <mxGeometry x="175" y="1050" width="120" height="70" as="geometry" />
        </mxCell>
        <mxCell id="kVo2EOnCKwho9ZSmZPj_-6" value="Yes" style="rounded=0;html=1;jettySize=auto;orthogonalLoop=1;fontSize=11;endArrow=block;endFill=0;endSize=8;strokeWidth=1;shadow=0;labelBackgroundColor=none;edgeStyle=orthogonalEdgeStyle;entryX=0.5;entryY=0;entryDx=0;entryDy=0;exitX=0.5;exitY=1;exitDx=0;exitDy=0;" parent="WIyWlLk6GJQsqaUBKTNV-1" source="kVo2EOnCKwho9ZSmZPj_-5" target="LQBBWo4mk1jTgVN7056S-0" edge="1">
          <mxGeometry x="0.3333" y="20" relative="1" as="geometry">
            <mxPoint as="offset" />
            <mxPoint x="290" y="1015" as="sourcePoint" />
            <mxPoint x="235" y="1035" as="targetPoint" />
          </mxGeometry>
        </mxCell>
        <mxCell id="kVo2EOnCKwho9ZSmZPj_-7" value="在空轨道加入资源" style="whiteSpace=wrap;html=1;rounded=1;glass=0;strokeWidth=1;shadow=0;fillColor=#1ba1e2;fontColor=#ffffff;strokeColor=#006EAF;" parent="WIyWlLk6GJQsqaUBKTNV-1" vertex="1">
          <mxGeometry x="175" y="1340" width="120" height="60" as="geometry" />
        </mxCell>
        <mxCell id="kVo2EOnCKwho9ZSmZPj_-15" value="是否在顶部边框&lt;br&gt;及以上" style="rhombus;whiteSpace=wrap;html=1;rounded=0;fillColor=#008a00;fontColor=#ffffff;strokeColor=#005700;" parent="WIyWlLk6GJQsqaUBKTNV-1" vertex="1">
          <mxGeometry x="414" y="865" width="160" height="60" as="geometry" />
        </mxCell>
        <mxCell id="kVo2EOnCKwho9ZSmZPj_-18" value="No" style="edgeStyle=orthogonalEdgeStyle;rounded=0;html=1;jettySize=auto;orthogonalLoop=1;fontSize=11;endArrow=block;endFill=0;endSize=8;strokeWidth=1;shadow=0;labelBackgroundColor=none;entryX=0;entryY=0.5;entryDx=0;entryDy=0;exitX=1;exitY=0.5;exitDx=0;exitDy=0;" parent="WIyWlLk6GJQsqaUBKTNV-1" source="kVo2EOnCKwho9ZSmZPj_-0" target="kVo2EOnCKwho9ZSmZPj_-15" edge="1">
          <mxGeometry y="10" relative="1" as="geometry">
            <mxPoint as="offset" />
            <mxPoint x="300" y="550" as="sourcePoint" />
            <mxPoint x="440" y="550" as="targetPoint" />
          </mxGeometry>
        </mxCell>
        <mxCell id="kVo2EOnCKwho9ZSmZPj_-19" value="上方新建视觉轨道&lt;br&gt;并加入资源" style="whiteSpace=wrap;html=1;rounded=1;glass=0;strokeWidth=1;shadow=0;fillColor=#1ba1e2;fontColor=#ffffff;strokeColor=#006EAF;" parent="WIyWlLk6GJQsqaUBKTNV-1" vertex="1">
          <mxGeometry x="434" y="970" width="120" height="55" as="geometry" />
        </mxCell>
        <mxCell id="kVo2EOnCKwho9ZSmZPj_-21" value="Yes" style="edgeStyle=orthogonalEdgeStyle;rounded=0;html=1;jettySize=auto;orthogonalLoop=1;fontSize=11;endArrow=block;endFill=0;endSize=8;strokeWidth=1;shadow=0;labelBackgroundColor=none;entryX=0.5;entryY=0;entryDx=0;entryDy=0;exitX=0.5;exitY=1;exitDx=0;exitDy=0;" parent="WIyWlLk6GJQsqaUBKTNV-1" source="kVo2EOnCKwho9ZSmZPj_-15" target="kVo2EOnCKwho9ZSmZPj_-19" edge="1">
          <mxGeometry y="10" relative="1" as="geometry">
            <mxPoint as="offset" />
            <mxPoint x="440" y="765" as="sourcePoint" />
            <mxPoint x="575" y="765" as="targetPoint" />
          </mxGeometry>
        </mxCell>
        <mxCell id="kVo2EOnCKwho9ZSmZPj_-22" value="No" style="edgeStyle=orthogonalEdgeStyle;rounded=0;html=1;jettySize=auto;orthogonalLoop=1;fontSize=11;endArrow=block;endFill=0;endSize=8;strokeWidth=1;shadow=0;labelBackgroundColor=none;exitX=1;exitY=0.5;exitDx=0;exitDy=0;entryX=0;entryY=0.5;entryDx=0;entryDy=0;" parent="WIyWlLk6GJQsqaUBKTNV-1" source="kVo2EOnCKwho9ZSmZPj_-15" target="kVo2EOnCKwho9ZSmZPj_-23" edge="1">
          <mxGeometry y="10" relative="1" as="geometry">
            <mxPoint as="offset" />
            <mxPoint x="570" y="694.5" as="sourcePoint" />
            <mxPoint x="640" y="695" as="targetPoint" />
          </mxGeometry>
        </mxCell>
        <mxCell id="kVo2EOnCKwho9ZSmZPj_-23" value="轨道是否为主轨道" style="rhombus;whiteSpace=wrap;html=1;rounded=0;fillColor=#008a00;fontColor=#ffffff;strokeColor=#005700;" parent="WIyWlLk6GJQsqaUBKTNV-1" vertex="1">
          <mxGeometry x="640" y="865" width="150" height="60" as="geometry" />
        </mxCell>
        <mxCell id="kVo2EOnCKwho9ZSmZPj_-26" value="Yes" style="edgeStyle=orthogonalEdgeStyle;rounded=0;html=1;jettySize=auto;orthogonalLoop=1;fontSize=11;endArrow=block;endFill=0;endSize=8;strokeWidth=1;shadow=0;labelBackgroundColor=none;exitX=0.5;exitY=1;exitDx=0;exitDy=0;entryX=0.5;entryY=0;entryDx=0;entryDy=0;" parent="WIyWlLk6GJQsqaUBKTNV-1" source="kVo2EOnCKwho9ZSmZPj_-23" target="kihT8yTP-zsvNt_6NwiB-25" edge="1">
          <mxGeometry y="10" relative="1" as="geometry">
            <mxPoint as="offset" />
            <mxPoint x="700" y="735" as="sourcePoint" />
            <mxPoint x="715" y="965" as="targetPoint" />
            <Array as="points" />
          </mxGeometry>
        </mxCell>
        <mxCell id="kVo2EOnCKwho9ZSmZPj_-28" value="下方新建视觉轨道&lt;br&gt;并加入资源" style="whiteSpace=wrap;html=1;rounded=1;fillColor=#1ba1e2;fontColor=#ffffff;strokeColor=#006EAF;" parent="WIyWlLk6GJQsqaUBKTNV-1" vertex="1">
          <mxGeometry x="870" y="865" width="120" height="60" as="geometry" />
        </mxCell>
        <mxCell id="kVo2EOnCKwho9ZSmZPj_-30" value="No" style="edgeStyle=orthogonalEdgeStyle;rounded=0;html=1;jettySize=auto;orthogonalLoop=1;fontSize=11;endArrow=block;endFill=0;endSize=8;strokeWidth=1;shadow=0;labelBackgroundColor=none;exitX=1;exitY=0.5;exitDx=0;exitDy=0;entryX=0;entryY=0.5;entryDx=0;entryDy=0;" parent="WIyWlLk6GJQsqaUBKTNV-1" source="kVo2EOnCKwho9ZSmZPj_-23" target="kVo2EOnCKwho9ZSmZPj_-28" edge="1">
          <mxGeometry y="10" relative="1" as="geometry">
            <mxPoint as="offset" />
            <mxPoint x="560" y="705" as="sourcePoint" />
            <mxPoint x="650" y="705" as="targetPoint" />
          </mxGeometry>
        </mxCell>
        <mxCell id="kVo2EOnCKwho9ZSmZPj_-33" value="视觉轨道数大于一条&lt;br&gt;或者&lt;br&gt;主轨道有内容" style="rhombus;whiteSpace=wrap;html=1;rounded=0;fillColor=#008a00;fontColor=#ffffff;strokeColor=#005700;" parent="WIyWlLk6GJQsqaUBKTNV-1" vertex="1">
          <mxGeometry x="162.5" y="450" width="145" height="150" as="geometry" />
        </mxCell>
        <mxCell id="kVo2EOnCKwho9ZSmZPj_-34" value="Yes" style="rounded=0;html=1;jettySize=auto;orthogonalLoop=1;fontSize=11;endArrow=block;endFill=0;endSize=8;strokeWidth=1;shadow=0;labelBackgroundColor=none;edgeStyle=orthogonalEdgeStyle;entryX=0.5;entryY=0;entryDx=0;entryDy=0;exitX=0.5;exitY=1;exitDx=0;exitDy=0;" parent="WIyWlLk6GJQsqaUBKTNV-1" source="kVo2EOnCKwho9ZSmZPj_-33" target="WIyWlLk6GJQsqaUBKTNV-11" edge="1">
          <mxGeometry x="0.3333" y="20" relative="1" as="geometry">
            <mxPoint as="offset" />
            <mxPoint x="260" y="570" as="sourcePoint" />
            <mxPoint x="260" y="640" as="targetPoint" />
          </mxGeometry>
        </mxCell>
        <mxCell id="VnIIeza6wGG-whXCrfQa-4" value="是否为包含听觉资源" style="rhombus;whiteSpace=wrap;html=1;fillColor=#008a00;strokeColor=#005700;fontColor=#ffffff;" parent="WIyWlLk6GJQsqaUBKTNV-1" vertex="1">
          <mxGeometry x="-60" y="655" width="126" height="80" as="geometry" />
        </mxCell>
        <mxCell id="kihT8yTP-zsvNt_6NwiB-1" value="加入资源到该轨道" style="whiteSpace=wrap;html=1;rounded=1;glass=0;strokeWidth=1;shadow=0;fillColor=#1ba1e2;fontColor=#ffffff;strokeColor=#006EAF;" parent="WIyWlLk6GJQsqaUBKTNV-1" vertex="1">
          <mxGeometry x="434" y="1055" width="120" height="60" as="geometry" />
        </mxCell>
        <mxCell id="kihT8yTP-zsvNt_6NwiB-2" value="No" style="edgeStyle=orthogonalEdgeStyle;rounded=0;html=1;jettySize=auto;orthogonalLoop=1;fontSize=11;endArrow=block;endFill=0;endSize=8;strokeWidth=1;shadow=0;labelBackgroundColor=none;entryX=0;entryY=0.5;entryDx=0;entryDy=0;exitX=1;exitY=0.5;exitDx=0;exitDy=0;" parent="WIyWlLk6GJQsqaUBKTNV-1" source="kVo2EOnCKwho9ZSmZPj_-5" target="kihT8yTP-zsvNt_6NwiB-1" edge="1">
          <mxGeometry y="10" relative="1" as="geometry">
            <mxPoint as="offset" />
            <mxPoint x="307.5" y="1133.5" as="sourcePoint" />
            <mxPoint x="429" y="1133.5" as="targetPoint" />
          </mxGeometry>
        </mxCell>
        <mxCell id="kihT8yTP-zsvNt_6NwiB-19" value="Yes" style="rounded=0;html=1;jettySize=auto;orthogonalLoop=1;fontSize=11;endArrow=block;endFill=0;endSize=8;strokeWidth=1;shadow=0;labelBackgroundColor=none;edgeStyle=orthogonalEdgeStyle;exitX=0.5;exitY=1;exitDx=0;exitDy=0;entryX=0.5;entryY=0;entryDx=0;entryDy=0;" parent="WIyWlLk6GJQsqaUBKTNV-1" source="VnIIeza6wGG-whXCrfQa-4" target="kihT8yTP-zsvNt_6NwiB-20" edge="1">
          <mxGeometry x="0.3333" y="20" relative="1" as="geometry">
            <mxPoint as="offset" />
            <mxPoint x="2.5" y="750" as="sourcePoint" />
            <mxPoint x="3" y="800" as="targetPoint" />
          </mxGeometry>
        </mxCell>
        <mxCell id="kihT8yTP-zsvNt_6NwiB-20" value="是否存在听觉轨道" style="rhombus;whiteSpace=wrap;html=1;fillColor=#008a00;strokeColor=#005700;fontColor=#ffffff;" parent="WIyWlLk6GJQsqaUBKTNV-1" vertex="1">
          <mxGeometry x="-69.5" y="750" width="145" height="85" as="geometry" />
        </mxCell>
        <mxCell id="kihT8yTP-zsvNt_6NwiB-21" value="" style="edgeStyle=orthogonalEdgeStyle;rounded=0;orthogonalLoop=1;jettySize=auto;html=1;entryX=1;entryY=0.5;entryDx=0;entryDy=0;endArrow=block;endFill=0;exitX=0;exitY=0.5;exitDx=0;exitDy=0;" parent="WIyWlLk6GJQsqaUBKTNV-1" source="VnIIeza6wGG-whXCrfQa-4" target="kihT8yTP-zsvNt_6NwiB-23" edge="1">
          <mxGeometry relative="1" as="geometry">
            <mxPoint x="-69.5" y="695" as="sourcePoint" />
            <mxPoint x="-229.5" y="694.5" as="targetPoint" />
          </mxGeometry>
        </mxCell>
        <mxCell id="kihT8yTP-zsvNt_6NwiB-22" value="No" style="edgeLabel;html=1;align=center;verticalAlign=middle;resizable=0;points=[];" parent="kihT8yTP-zsvNt_6NwiB-21" vertex="1" connectable="0">
          <mxGeometry x="0.0353" y="-1" relative="1" as="geometry">
            <mxPoint y="-14" as="offset" />
          </mxGeometry>
        </mxCell>
        <mxCell id="kihT8yTP-zsvNt_6NwiB-23" value="最上面新建视觉轨道&lt;br&gt;并加入资源" style="rounded=1;whiteSpace=wrap;html=1;fontSize=12;glass=0;strokeWidth=1;shadow=0;fillColor=#1ba1e2;fontColor=#ffffff;strokeColor=#006EAF;" parent="WIyWlLk6GJQsqaUBKTNV-1" vertex="1">
          <mxGeometry x="-374.5" y="675" width="120" height="40" as="geometry" />
        </mxCell>
        <mxCell id="kihT8yTP-zsvNt_6NwiB-24" value="上方新建视觉轨道&lt;br&gt;并加入资源" style="whiteSpace=wrap;html=1;rounded=1;glass=0;strokeWidth=1;shadow=0;fillColor=#1ba1e2;fontColor=#ffffff;strokeColor=#006EAF;" parent="WIyWlLk6GJQsqaUBKTNV-1" vertex="1">
          <mxGeometry x="860" y="1055" width="120" height="60" as="geometry" />
        </mxCell>
        <mxCell id="kihT8yTP-zsvNt_6NwiB-25" value="是否包含听觉资源" style="rhombus;whiteSpace=wrap;html=1;fillColor=#008a00;fontColor=#ffffff;strokeColor=#005700;" parent="WIyWlLk6GJQsqaUBKTNV-1" vertex="1">
          <mxGeometry x="650" y="1025" width="130" height="120" as="geometry" />
        </mxCell>
        <mxCell id="kihT8yTP-zsvNt_6NwiB-26" value="No" style="edgeStyle=orthogonalEdgeStyle;rounded=0;html=1;jettySize=auto;orthogonalLoop=1;fontSize=11;endArrow=block;endFill=0;endSize=8;strokeWidth=1;shadow=0;labelBackgroundColor=none;exitX=1;exitY=0.5;exitDx=0;exitDy=0;" parent="WIyWlLk6GJQsqaUBKTNV-1" source="kihT8yTP-zsvNt_6NwiB-25" target="kihT8yTP-zsvNt_6NwiB-24" edge="1">
          <mxGeometry y="10" relative="1" as="geometry">
            <mxPoint as="offset" />
            <mxPoint x="790" y="1084.5" as="sourcePoint" />
            <mxPoint x="870" y="1084.5" as="targetPoint" />
          </mxGeometry>
        </mxCell>
        <mxCell id="kihT8yTP-zsvNt_6NwiB-27" value="Yes" style="edgeStyle=orthogonalEdgeStyle;rounded=0;html=1;jettySize=auto;orthogonalLoop=1;fontSize=11;endArrow=block;endFill=0;endSize=8;strokeWidth=1;shadow=0;labelBackgroundColor=none;exitX=0.5;exitY=1;exitDx=0;exitDy=0;entryX=0.5;entryY=0;entryDx=0;entryDy=0;" parent="WIyWlLk6GJQsqaUBKTNV-1" source="kihT8yTP-zsvNt_6NwiB-25" target="kihT8yTP-zsvNt_6NwiB-28" edge="1">
          <mxGeometry y="10" relative="1" as="geometry">
            <mxPoint as="offset" />
            <mxPoint x="714.5" y="1160" as="sourcePoint" />
            <mxPoint x="715" y="1230" as="targetPoint" />
            <Array as="points" />
          </mxGeometry>
        </mxCell>
        <mxCell id="kihT8yTP-zsvNt_6NwiB-28" value="下方新建听觉轨道&lt;br&gt;并加入资源" style="whiteSpace=wrap;html=1;rounded=1;glass=0;strokeWidth=1;shadow=0;fillColor=#1ba1e2;fontColor=#ffffff;strokeColor=#006EAF;" parent="WIyWlLk6GJQsqaUBKTNV-1" vertex="1">
          <mxGeometry x="655" y="1220" width="120" height="60" as="geometry" />
        </mxCell>
        <mxCell id="kihT8yTP-zsvNt_6NwiB-29" value="" style="edgeStyle=orthogonalEdgeStyle;rounded=0;orthogonalLoop=1;jettySize=auto;html=1;entryX=1;entryY=0.5;entryDx=0;entryDy=0;endArrow=block;endFill=0;" parent="WIyWlLk6GJQsqaUBKTNV-1" source="kihT8yTP-zsvNt_6NwiB-20" target="kihT8yTP-zsvNt_6NwiB-31" edge="1">
          <mxGeometry relative="1" as="geometry">
            <mxPoint x="-82.25" y="832.5" as="sourcePoint" />
            <mxPoint x="-251.75" y="832" as="targetPoint" />
          </mxGeometry>
        </mxCell>
        <mxCell id="kihT8yTP-zsvNt_6NwiB-30" value="No" style="edgeLabel;html=1;align=center;verticalAlign=middle;resizable=0;points=[];" parent="kihT8yTP-zsvNt_6NwiB-29" vertex="1" connectable="0">
          <mxGeometry x="0.0353" y="-1" relative="1" as="geometry">
            <mxPoint y="-14" as="offset" />
          </mxGeometry>
        </mxCell>
        <mxCell id="kihT8yTP-zsvNt_6NwiB-31" value="主轨道下方&lt;br&gt;新建听觉轨道&lt;br&gt;并加入资源" style="rounded=1;whiteSpace=wrap;html=1;fontSize=12;glass=0;strokeWidth=1;shadow=0;fillColor=#1ba1e2;fontColor=#ffffff;strokeColor=#006EAF;" parent="WIyWlLk6GJQsqaUBKTNV-1" vertex="1">
          <mxGeometry x="-374.5" y="772.5" width="120" height="40" as="geometry" />
        </mxCell>
        <mxCell id="kihT8yTP-zsvNt_6NwiB-32" value="Yes" style="rounded=0;html=1;jettySize=auto;orthogonalLoop=1;fontSize=11;endArrow=block;endFill=0;endSize=8;strokeWidth=1;shadow=0;labelBackgroundColor=none;edgeStyle=orthogonalEdgeStyle;exitX=0.5;exitY=1;exitDx=0;exitDy=0;entryX=0.5;entryY=0;entryDx=0;entryDy=0;" parent="WIyWlLk6GJQsqaUBKTNV-1" source="kihT8yTP-zsvNt_6NwiB-20" target="kihT8yTP-zsvNt_6NwiB-34" edge="1">
          <mxGeometry x="0.3333" y="20" relative="1" as="geometry">
            <mxPoint as="offset" />
            <mxPoint x="2.5" y="890" as="sourcePoint" />
            <mxPoint x="2.5" y="940" as="targetPoint" />
          </mxGeometry>
        </mxCell>
        <mxCell id="kihT8yTP-zsvNt_6NwiB-34" value="鼠标在轨道&lt;br&gt;中间区域" style="rhombus;whiteSpace=wrap;html=1;fillColor=#008a00;strokeColor=#005700;fontColor=#ffffff;" parent="WIyWlLk6GJQsqaUBKTNV-1" vertex="1">
          <mxGeometry x="-54.5" y="850" width="115" height="90" as="geometry" />
        </mxCell>
        <mxCell id="kihT8yTP-zsvNt_6NwiB-35" value="上方新建听觉轨道&lt;br&gt;并加入资源" style="whiteSpace=wrap;html=1;rounded=1;glass=0;strokeWidth=1;shadow=0;fillColor=#1ba1e2;fontColor=#ffffff;strokeColor=#006EAF;" parent="WIyWlLk6GJQsqaUBKTNV-1" vertex="1">
          <mxGeometry x="-370" y="1215" width="120" height="60" as="geometry" />
        </mxCell>
        <mxCell id="kihT8yTP-zsvNt_6NwiB-36" value="Yes" style="rounded=0;html=1;jettySize=auto;orthogonalLoop=1;fontSize=11;endArrow=block;endFill=0;endSize=8;strokeWidth=1;shadow=0;labelBackgroundColor=none;edgeStyle=orthogonalEdgeStyle;entryX=0.5;entryY=0;entryDx=0;entryDy=0;exitX=0.5;exitY=1;exitDx=0;exitDy=0;" parent="WIyWlLk6GJQsqaUBKTNV-1" source="kihT8yTP-zsvNt_6NwiB-37" target="LQBBWo4mk1jTgVN7056S-4" edge="1">
          <mxGeometry x="0.3333" y="20" relative="1" as="geometry">
            <mxPoint as="offset" />
            <mxPoint x="60.5" y="1025" as="sourcePoint" />
            <mxPoint x="5.5" y="1045" as="targetPoint" />
          </mxGeometry>
        </mxCell>
        <mxCell id="kihT8yTP-zsvNt_6NwiB-37" value="是否存在资源重叠" style="rhombus;whiteSpace=wrap;html=1;rounded=0;fillColor=#008a00;fontColor=#ffffff;strokeColor=#005700;" parent="WIyWlLk6GJQsqaUBKTNV-1" vertex="1">
          <mxGeometry x="-57" y="1045" width="120" height="70" as="geometry" />
        </mxCell>
        <mxCell id="kihT8yTP-zsvNt_6NwiB-38" value="Yes" style="rounded=0;html=1;jettySize=auto;orthogonalLoop=1;fontSize=11;endArrow=block;endFill=0;endSize=8;strokeWidth=1;shadow=0;labelBackgroundColor=none;edgeStyle=orthogonalEdgeStyle;exitX=0.5;exitY=1;exitDx=0;exitDy=0;entryX=0.5;entryY=0;entryDx=0;entryDy=0;" parent="WIyWlLk6GJQsqaUBKTNV-1" source="kihT8yTP-zsvNt_6NwiB-34" target="kihT8yTP-zsvNt_6NwiB-37" edge="1">
          <mxGeometry x="0.3333" y="20" relative="1" as="geometry">
            <mxPoint as="offset" />
            <mxPoint x="5.5" y="950" as="sourcePoint" />
            <mxPoint x="5.5" y="925" as="targetPoint" />
          </mxGeometry>
        </mxCell>
        <mxCell id="kihT8yTP-zsvNt_6NwiB-40" value="加入资源到该轨道" style="whiteSpace=wrap;html=1;rounded=1;glass=0;strokeWidth=1;shadow=0;fillColor=#1ba1e2;fontColor=#ffffff;strokeColor=#006EAF;" parent="WIyWlLk6GJQsqaUBKTNV-1" vertex="1">
          <mxGeometry x="-370" y="1050" width="120" height="60" as="geometry" />
        </mxCell>
        <mxCell id="kihT8yTP-zsvNt_6NwiB-41" value="" style="edgeStyle=orthogonalEdgeStyle;rounded=0;orthogonalLoop=1;jettySize=auto;html=1;entryX=1;entryY=0.5;entryDx=0;entryDy=0;endArrow=block;endFill=0;exitX=0;exitY=0.5;exitDx=0;exitDy=0;" parent="WIyWlLk6GJQsqaUBKTNV-1" source="kihT8yTP-zsvNt_6NwiB-37" target="kihT8yTP-zsvNt_6NwiB-40" edge="1">
          <mxGeometry relative="1" as="geometry">
            <mxPoint x="-69.5" y="1079.5" as="sourcePoint" />
            <mxPoint x="-169.5" y="1079.5" as="targetPoint" />
          </mxGeometry>
        </mxCell>
        <mxCell id="kihT8yTP-zsvNt_6NwiB-42" value="No" style="edgeLabel;html=1;align=center;verticalAlign=middle;resizable=0;points=[];" parent="kihT8yTP-zsvNt_6NwiB-41" vertex="1" connectable="0">
          <mxGeometry x="0.0353" y="-1" relative="1" as="geometry">
            <mxPoint y="-14" as="offset" />
          </mxGeometry>
        </mxCell>
        <mxCell id="kihT8yTP-zsvNt_6NwiB-43" value="" style="edgeStyle=orthogonalEdgeStyle;rounded=0;orthogonalLoop=1;jettySize=auto;html=1;entryX=0.966;entryY=0.5;entryDx=0;entryDy=0;endArrow=block;endFill=0;exitX=0;exitY=0.5;exitDx=0;exitDy=0;entryPerimeter=0;" parent="WIyWlLk6GJQsqaUBKTNV-1" source="kihT8yTP-zsvNt_6NwiB-34" target="kihT8yTP-zsvNt_6NwiB-45" edge="1">
          <mxGeometry relative="1" as="geometry">
            <mxPoint x="-60" y="894.5" as="sourcePoint" />
            <mxPoint x="-160" y="894.5" as="targetPoint" />
          </mxGeometry>
        </mxCell>
        <mxCell id="kihT8yTP-zsvNt_6NwiB-44" value="No" style="edgeLabel;html=1;align=center;verticalAlign=middle;resizable=0;points=[];" parent="kihT8yTP-zsvNt_6NwiB-43" vertex="1" connectable="0">
          <mxGeometry x="0.0353" y="-1" relative="1" as="geometry">
            <mxPoint y="-14" as="offset" />
          </mxGeometry>
        </mxCell>
        <mxCell id="kihT8yTP-zsvNt_6NwiB-45" value="是否在顶部边框&lt;br&gt;及以上" style="rhombus;whiteSpace=wrap;html=1;rounded=0;fillColor=#008a00;fontColor=#ffffff;strokeColor=#005700;" parent="WIyWlLk6GJQsqaUBKTNV-1" vertex="1">
          <mxGeometry x="-230" y="865" width="150" height="60" as="geometry" />
        </mxCell>
        <mxCell id="kihT8yTP-zsvNt_6NwiB-46" value="上方新建听觉轨道&lt;br&gt;并加入资源" style="whiteSpace=wrap;html=1;rounded=1;glass=0;strokeWidth=1;shadow=0;fillColor=#1ba1e2;fontColor=#ffffff;strokeColor=#006EAF;" parent="WIyWlLk6GJQsqaUBKTNV-1" vertex="1">
          <mxGeometry x="-215" y="980" width="120" height="55" as="geometry" />
        </mxCell>
        <mxCell id="kihT8yTP-zsvNt_6NwiB-47" value="Yes" style="edgeStyle=orthogonalEdgeStyle;rounded=0;html=1;jettySize=auto;orthogonalLoop=1;fontSize=11;endArrow=block;endFill=0;endSize=8;strokeWidth=1;shadow=0;labelBackgroundColor=none;entryX=0.5;entryY=0;entryDx=0;entryDy=0;exitX=0.5;exitY=1;exitDx=0;exitDy=0;" parent="WIyWlLk6GJQsqaUBKTNV-1" source="kihT8yTP-zsvNt_6NwiB-45" target="kihT8yTP-zsvNt_6NwiB-46" edge="1">
          <mxGeometry y="10" relative="1" as="geometry">
            <mxPoint as="offset" />
            <mxPoint x="-175.5" y="935" as="sourcePoint" />
            <mxPoint x="-175.5" y="980" as="targetPoint" />
          </mxGeometry>
        </mxCell>
        <mxCell id="kihT8yTP-zsvNt_6NwiB-49" value="" style="edgeStyle=orthogonalEdgeStyle;rounded=0;orthogonalLoop=1;jettySize=auto;html=1;endArrow=block;endFill=0;exitX=0;exitY=0.5;exitDx=0;exitDy=0;entryX=1;entryY=0.5;entryDx=0;entryDy=0;" parent="WIyWlLk6GJQsqaUBKTNV-1" source="kihT8yTP-zsvNt_6NwiB-45" target="kihT8yTP-zsvNt_6NwiB-51" edge="1">
          <mxGeometry relative="1" as="geometry">
            <mxPoint x="-260" y="894.5" as="sourcePoint" />
            <mxPoint x="-235" y="895" as="targetPoint" />
          </mxGeometry>
        </mxCell>
        <mxCell id="kihT8yTP-zsvNt_6NwiB-50" value="No" style="edgeLabel;html=1;align=center;verticalAlign=middle;resizable=0;points=[];" parent="kihT8yTP-zsvNt_6NwiB-49" vertex="1" connectable="0">
          <mxGeometry x="0.0353" y="-1" relative="1" as="geometry">
            <mxPoint y="-14" as="offset" />
          </mxGeometry>
        </mxCell>
        <mxCell id="kihT8yTP-zsvNt_6NwiB-51" value="下方新建听觉轨道&lt;br&gt;并加入资源" style="rounded=1;whiteSpace=wrap;html=1;fontSize=12;glass=0;strokeWidth=1;shadow=0;fillColor=#1ba1e2;fontColor=#ffffff;strokeColor=#006EAF;" parent="WIyWlLk6GJQsqaUBKTNV-1" vertex="1">
          <mxGeometry x="-374.5" y="875" width="120" height="40" as="geometry" />
        </mxCell>
        <mxCell id="kihT8yTP-zsvNt_6NwiB-53" value="是否为包含听觉资源" style="rhombus;whiteSpace=wrap;html=1;fillColor=#008a00;strokeColor=#005700;fontColor=#ffffff;" parent="WIyWlLk6GJQsqaUBKTNV-1" vertex="1">
          <mxGeometry x="431" y="325" width="126" height="80" as="geometry" />
        </mxCell>
        <mxCell id="kihT8yTP-zsvNt_6NwiB-54" value="No" style="edgeStyle=orthogonalEdgeStyle;rounded=0;html=1;jettySize=auto;orthogonalLoop=1;fontSize=11;endArrow=block;endFill=0;endSize=8;strokeWidth=1;shadow=0;labelBackgroundColor=none;exitX=1;exitY=0.5;exitDx=0;exitDy=0;entryX=0;entryY=0.5;entryDx=0;entryDy=0;" parent="WIyWlLk6GJQsqaUBKTNV-1" source="WIyWlLk6GJQsqaUBKTNV-10" target="kihT8yTP-zsvNt_6NwiB-53" edge="1">
          <mxGeometry y="10" relative="1" as="geometry">
            <mxPoint as="offset" />
            <mxPoint x="300" y="364.5" as="sourcePoint" />
            <mxPoint x="419" y="364.5" as="targetPoint" />
          </mxGeometry>
        </mxCell>
        <mxCell id="kihT8yTP-zsvNt_6NwiB-55" value="结束" style="rounded=1;whiteSpace=wrap;html=1;fontSize=12;glass=0;strokeWidth=1;shadow=0;fillColor=#a20025;fontColor=#ffffff;strokeColor=#6F0000;" parent="WIyWlLk6GJQsqaUBKTNV-1" vertex="1">
          <mxGeometry x="640" y="345" width="120" height="40" as="geometry" />
        </mxCell>
        <mxCell id="kihT8yTP-zsvNt_6NwiB-56" value="No" style="edgeStyle=orthogonalEdgeStyle;rounded=0;html=1;jettySize=auto;orthogonalLoop=1;fontSize=11;endArrow=block;endFill=0;endSize=8;strokeWidth=1;shadow=0;labelBackgroundColor=none;exitX=1;exitY=0.5;exitDx=0;exitDy=0;entryX=0;entryY=0.5;entryDx=0;entryDy=0;" parent="WIyWlLk6GJQsqaUBKTNV-1" source="kihT8yTP-zsvNt_6NwiB-53" target="kihT8yTP-zsvNt_6NwiB-55" edge="1">
          <mxGeometry y="10" relative="1" as="geometry">
            <mxPoint as="offset" />
            <mxPoint x="741" y="364.5" as="sourcePoint" />
            <mxPoint x="860" y="364.5" as="targetPoint" />
          </mxGeometry>
        </mxCell>
        <mxCell id="kihT8yTP-zsvNt_6NwiB-58" value="Yes" style="rounded=0;html=1;jettySize=auto;orthogonalLoop=1;fontSize=11;endArrow=block;endFill=0;endSize=8;strokeWidth=1;shadow=0;labelBackgroundColor=none;edgeStyle=orthogonalEdgeStyle;exitX=0.5;exitY=1;exitDx=0;exitDy=0;entryX=0.5;entryY=0;entryDx=0;entryDy=0;" parent="WIyWlLk6GJQsqaUBKTNV-1" source="kihT8yTP-zsvNt_6NwiB-53" target="kihT8yTP-zsvNt_6NwiB-59" edge="1">
          <mxGeometry x="0.3333" y="20" relative="1" as="geometry">
            <mxPoint as="offset" />
            <mxPoint x="655" y="420" as="sourcePoint" />
            <mxPoint x="655" y="510" as="targetPoint" />
          </mxGeometry>
        </mxCell>
        <mxCell id="kihT8yTP-zsvNt_6NwiB-70" value="" style="edgeStyle=orthogonalEdgeStyle;rounded=0;orthogonalLoop=1;jettySize=auto;html=1;endArrow=block;endFill=0;" parent="WIyWlLk6GJQsqaUBKTNV-1" source="kihT8yTP-zsvNt_6NwiB-59" target="kihT8yTP-zsvNt_6NwiB-69" edge="1">
          <mxGeometry relative="1" as="geometry" />
        </mxCell>
        <mxCell id="kihT8yTP-zsvNt_6NwiB-71" value="No" style="edgeLabel;html=1;align=center;verticalAlign=middle;resizable=0;points=[];" parent="kihT8yTP-zsvNt_6NwiB-70" vertex="1" connectable="0">
          <mxGeometry x="0.159" y="-2" relative="1" as="geometry">
            <mxPoint y="-17" as="offset" />
          </mxGeometry>
        </mxCell>
        <mxCell id="kihT8yTP-zsvNt_6NwiB-77" value="" style="edgeStyle=orthogonalEdgeStyle;rounded=0;orthogonalLoop=1;jettySize=auto;html=1;endArrow=block;endFill=0;fillColor=#0050ef;strokeColor=#001DBC;exitX=0.5;exitY=1;exitDx=0;exitDy=0;" parent="WIyWlLk6GJQsqaUBKTNV-1" source="kihT8yTP-zsvNt_6NwiB-59" target="kihT8yTP-zsvNt_6NwiB-20" edge="1">
          <mxGeometry relative="1" as="geometry">
            <mxPoint x="110" y="789" as="targetPoint" />
            <Array as="points">
              <mxPoint x="494" y="789" />
            </Array>
          </mxGeometry>
        </mxCell>
        <mxCell id="kihT8yTP-zsvNt_6NwiB-78" value="Yes" style="edgeLabel;html=1;align=center;verticalAlign=middle;resizable=0;points=[];" parent="kihT8yTP-zsvNt_6NwiB-77" vertex="1" connectable="0">
          <mxGeometry x="-0.1875" y="2" relative="1" as="geometry">
            <mxPoint x="14" y="7" as="offset" />
          </mxGeometry>
        </mxCell>
        <mxCell id="kihT8yTP-zsvNt_6NwiB-59" value="鼠标在主轨道&lt;br&gt;以下的位置" style="rhombus;whiteSpace=wrap;html=1;rounded=0;fillColor=#008a00;fontColor=#ffffff;strokeColor=#005700;" parent="WIyWlLk6GJQsqaUBKTNV-1" vertex="1">
          <mxGeometry x="436.5" y="565" width="115" height="90" as="geometry" />
        </mxCell>
        <mxCell id="kihT8yTP-zsvNt_6NwiB-61" value="结束" style="rounded=1;whiteSpace=wrap;html=1;fontSize=12;glass=0;strokeWidth=1;shadow=0;fillColor=#a20025;fontColor=#ffffff;strokeColor=#6F0000;" parent="WIyWlLk6GJQsqaUBKTNV-1" vertex="1">
          <mxGeometry x="-95" y="190" width="120" height="40" as="geometry" />
        </mxCell>
        <mxCell id="kihT8yTP-zsvNt_6NwiB-62" value="" style="edgeStyle=orthogonalEdgeStyle;rounded=0;orthogonalLoop=1;jettySize=auto;html=1;endArrow=block;endFill=0;exitX=0;exitY=0.5;exitDx=0;exitDy=0;entryX=1;entryY=0.5;entryDx=0;entryDy=0;" parent="WIyWlLk6GJQsqaUBKTNV-1" source="WIyWlLk6GJQsqaUBKTNV-6" target="kihT8yTP-zsvNt_6NwiB-61" edge="1">
          <mxGeometry relative="1" as="geometry">
            <mxPoint x="170" y="209.5" as="sourcePoint" />
            <mxPoint x="10" y="210" as="targetPoint" />
          </mxGeometry>
        </mxCell>
        <mxCell id="kihT8yTP-zsvNt_6NwiB-63" value="No" style="edgeLabel;html=1;align=center;verticalAlign=middle;resizable=0;points=[];" parent="kihT8yTP-zsvNt_6NwiB-62" vertex="1" connectable="0">
          <mxGeometry x="0.0353" y="-1" relative="1" as="geometry">
            <mxPoint y="-14" as="offset" />
          </mxGeometry>
        </mxCell>
        <mxCell id="kihT8yTP-zsvNt_6NwiB-64" value="加入资源到该轨道&lt;br&gt;(主轨道)" style="rounded=1;whiteSpace=wrap;html=1;fillColor=#1ba1e2;fontColor=#ffffff;strokeColor=#006EAF;" parent="WIyWlLk6GJQsqaUBKTNV-1" vertex="1">
          <mxGeometry x="-95" y="495" width="120" height="60" as="geometry" />
        </mxCell>
        <mxCell id="kihT8yTP-zsvNt_6NwiB-65" value="" style="edgeStyle=orthogonalEdgeStyle;rounded=0;orthogonalLoop=1;jettySize=auto;html=1;entryX=1;entryY=0.5;entryDx=0;entryDy=0;endArrow=block;endFill=0;" parent="WIyWlLk6GJQsqaUBKTNV-1" target="kihT8yTP-zsvNt_6NwiB-64" edge="1">
          <mxGeometry relative="1" as="geometry">
            <mxPoint x="160" y="525" as="sourcePoint" />
            <mxPoint x="-50" y="524.5" as="targetPoint" />
          </mxGeometry>
        </mxCell>
        <mxCell id="kihT8yTP-zsvNt_6NwiB-66" value="No" style="edgeLabel;html=1;align=center;verticalAlign=middle;resizable=0;points=[];" parent="kihT8yTP-zsvNt_6NwiB-65" vertex="1" connectable="0">
          <mxGeometry x="0.0353" y="-1" relative="1" as="geometry">
            <mxPoint y="-14" as="offset" />
          </mxGeometry>
        </mxCell>
        <mxCell id="kihT8yTP-zsvNt_6NwiB-69" value="只有一条听觉轨道&lt;br&gt;且无内容" style="rhombus;whiteSpace=wrap;html=1;fillColor=#008a00;strokeColor=#005700;fontColor=#ffffff;rounded=0;" parent="WIyWlLk6GJQsqaUBKTNV-1" vertex="1">
          <mxGeometry x="640" y="463.75" width="140" height="102.5" as="geometry" />
        </mxCell>
        <mxCell id="kihT8yTP-zsvNt_6NwiB-72" value="加入资源到该轨道" style="whiteSpace=wrap;html=1;rounded=1;fillColor=#1ba1e2;fontColor=#ffffff;strokeColor=#006EAF;" parent="WIyWlLk6GJQsqaUBKTNV-1" vertex="1">
          <mxGeometry x="650" y="665" width="120" height="60" as="geometry" />
        </mxCell>
        <mxCell id="kihT8yTP-zsvNt_6NwiB-73" value="主轨道下方新建听觉轨道，并加入资源" style="whiteSpace=wrap;html=1;rounded=1;fillColor=#1ba1e2;fontColor=#ffffff;strokeColor=#006EAF;" parent="WIyWlLk6GJQsqaUBKTNV-1" vertex="1">
          <mxGeometry x="870" y="485" width="120" height="60" as="geometry" />
        </mxCell>
        <mxCell id="kihT8yTP-zsvNt_6NwiB-74" value="No" style="edgeStyle=orthogonalEdgeStyle;rounded=0;html=1;jettySize=auto;orthogonalLoop=1;fontSize=11;endArrow=block;endFill=0;endSize=8;strokeWidth=1;shadow=0;labelBackgroundColor=none;exitX=1;exitY=0.5;exitDx=0;exitDy=0;entryX=0;entryY=0.5;entryDx=0;entryDy=0;" parent="WIyWlLk6GJQsqaUBKTNV-1" source="kihT8yTP-zsvNt_6NwiB-69" target="kihT8yTP-zsvNt_6NwiB-73" edge="1">
          <mxGeometry y="10" relative="1" as="geometry">
            <mxPoint as="offset" />
            <mxPoint x="970" y="514.5" as="sourcePoint" />
            <mxPoint x="1081" y="514.5" as="targetPoint" />
          </mxGeometry>
        </mxCell>
        <mxCell id="kihT8yTP-zsvNt_6NwiB-75" value="Yes" style="rounded=0;html=1;jettySize=auto;orthogonalLoop=1;fontSize=11;endArrow=block;endFill=0;endSize=8;strokeWidth=1;shadow=0;labelBackgroundColor=none;edgeStyle=orthogonalEdgeStyle;exitX=0.5;exitY=1;exitDx=0;exitDy=0;" parent="WIyWlLk6GJQsqaUBKTNV-1" source="kihT8yTP-zsvNt_6NwiB-69" target="kihT8yTP-zsvNt_6NwiB-72" edge="1">
          <mxGeometry x="0.3333" y="20" relative="1" as="geometry">
            <mxPoint as="offset" />
            <mxPoint x="709.5" y="585" as="sourcePoint" />
            <mxPoint x="709.5" y="650" as="targetPoint" />
          </mxGeometry>
        </mxCell>
        <mxCell id="LQBBWo4mk1jTgVN7056S-0" value="上方是否有视觉&lt;br&gt;轨道存在空位置" style="rhombus;whiteSpace=wrap;html=1;rounded=0;fillColor=#008a00;fontColor=#ffffff;strokeColor=#005700;" parent="WIyWlLk6GJQsqaUBKTNV-1" vertex="1">
          <mxGeometry x="167.5" y="1210" width="135" height="70" as="geometry" />
        </mxCell>
        <mxCell id="LQBBWo4mk1jTgVN7056S-1" value="Yes" style="rounded=0;html=1;jettySize=auto;orthogonalLoop=1;fontSize=11;endArrow=block;endFill=0;endSize=8;strokeWidth=1;shadow=0;labelBackgroundColor=none;edgeStyle=orthogonalEdgeStyle;entryX=0.5;entryY=0;entryDx=0;entryDy=0;exitX=0.5;exitY=1;exitDx=0;exitDy=0;" parent="WIyWlLk6GJQsqaUBKTNV-1" source="LQBBWo4mk1jTgVN7056S-0" target="kVo2EOnCKwho9ZSmZPj_-7" edge="1">
          <mxGeometry x="0.3333" y="20" relative="1" as="geometry">
            <mxPoint as="offset" />
            <mxPoint x="237" y="1290" as="sourcePoint" />
            <mxPoint x="237" y="1380" as="targetPoint" />
          </mxGeometry>
        </mxCell>
        <mxCell id="LQBBWo4mk1jTgVN7056S-2" value="No" style="edgeStyle=orthogonalEdgeStyle;rounded=0;html=1;jettySize=auto;orthogonalLoop=1;fontSize=11;endArrow=block;endFill=0;endSize=8;strokeWidth=1;shadow=0;labelBackgroundColor=none;exitX=1;exitY=0.5;exitDx=0;exitDy=0;" parent="WIyWlLk6GJQsqaUBKTNV-1" source="LQBBWo4mk1jTgVN7056S-0" target="LQBBWo4mk1jTgVN7056S-3" edge="1">
          <mxGeometry y="10" relative="1" as="geometry">
            <mxPoint as="offset" />
            <mxPoint x="320" y="1244.5" as="sourcePoint" />
            <mxPoint x="459" y="1244.5" as="targetPoint" />
          </mxGeometry>
        </mxCell>
        <mxCell id="LQBBWo4mk1jTgVN7056S-3" value="上方新建视觉轨道&lt;br&gt;并加入资源" style="whiteSpace=wrap;html=1;rounded=1;glass=0;strokeWidth=1;shadow=0;fillColor=#1ba1e2;fontColor=#ffffff;strokeColor=#006EAF;" parent="WIyWlLk6GJQsqaUBKTNV-1" vertex="1">
          <mxGeometry x="431" y="1215" width="120" height="60" as="geometry" />
        </mxCell>
        <mxCell id="LQBBWo4mk1jTgVN7056S-4" value="上下是否有听觉&lt;br&gt;轨道存在空位置" style="rhombus;whiteSpace=wrap;html=1;rounded=0;fillColor=#008a00;fontColor=#ffffff;strokeColor=#005700;" parent="WIyWlLk6GJQsqaUBKTNV-1" vertex="1">
          <mxGeometry x="-64.5" y="1210" width="135" height="70" as="geometry" />
        </mxCell>
        <mxCell id="LQBBWo4mk1jTgVN7056S-5" value="" style="edgeStyle=orthogonalEdgeStyle;rounded=0;orthogonalLoop=1;jettySize=auto;html=1;endArrow=block;endFill=0;entryX=1;entryY=0.5;entryDx=0;entryDy=0;" parent="WIyWlLk6GJQsqaUBKTNV-1" source="LQBBWo4mk1jTgVN7056S-4" target="kihT8yTP-zsvNt_6NwiB-35" edge="1">
          <mxGeometry relative="1" as="geometry">
            <mxPoint x="-69.5" y="1275" as="sourcePoint" />
            <mxPoint x="-220" y="1275" as="targetPoint" />
          </mxGeometry>
        </mxCell>
        <mxCell id="LQBBWo4mk1jTgVN7056S-6" value="No" style="edgeLabel;html=1;align=center;verticalAlign=middle;resizable=0;points=[];" parent="LQBBWo4mk1jTgVN7056S-5" vertex="1" connectable="0">
          <mxGeometry x="0.0353" y="-1" relative="1" as="geometry">
            <mxPoint y="-14" as="offset" />
          </mxGeometry>
        </mxCell>
        <mxCell id="LQBBWo4mk1jTgVN7056S-7" value="在空轨道加入资源" style="whiteSpace=wrap;html=1;rounded=1;glass=0;strokeWidth=1;shadow=0;fillColor=#1ba1e2;fontColor=#ffffff;strokeColor=#006EAF;" parent="WIyWlLk6GJQsqaUBKTNV-1" vertex="1">
          <mxGeometry x="-57" y="1340" width="120" height="60" as="geometry" />
        </mxCell>
        <mxCell id="LQBBWo4mk1jTgVN7056S-9" value="Yes" style="rounded=0;html=1;jettySize=auto;orthogonalLoop=1;fontSize=11;endArrow=block;endFill=0;endSize=8;strokeWidth=1;shadow=0;labelBackgroundColor=none;edgeStyle=orthogonalEdgeStyle;entryX=0.5;entryY=0;entryDx=0;entryDy=0;exitX=0.5;exitY=1;exitDx=0;exitDy=0;" parent="WIyWlLk6GJQsqaUBKTNV-1" source="LQBBWo4mk1jTgVN7056S-4" target="LQBBWo4mk1jTgVN7056S-7" edge="1">
          <mxGeometry x="0.3333" y="20" relative="1" as="geometry">
            <mxPoint as="offset" />
            <mxPoint x="29.5" y="1320" as="sourcePoint" />
            <mxPoint x="29.5" y="1380" as="targetPoint" />
          </mxGeometry>
        </mxCell>
      </root>
    </mxGraphModel>
  </diagram>
  <diagram name="第 2 页" id="ndydHvPPUFPuWYtz3wqL">
    <mxGraphModel dx="2448" dy="1216" grid="1" gridSize="10" guides="1" tooltips="1" connect="1" arrows="1" fold="1" page="1" pageScale="1" pageWidth="850" pageHeight="1100" math="0" shadow="0">
      <root>
        <mxCell id="dmKN5q7iSDAU5Qc1QMQp-0" />
        <mxCell id="dmKN5q7iSDAU5Qc1QMQp-1" parent="dmKN5q7iSDAU5Qc1QMQp-0" />
        <mxCell id="dmKN5q7iSDAU5Qc1QMQp-6" value="" style="edgeStyle=orthogonalEdgeStyle;rounded=0;orthogonalLoop=1;jettySize=auto;html=1;" parent="dmKN5q7iSDAU5Qc1QMQp-1" source="dmKN5q7iSDAU5Qc1QMQp-2" target="dmKN5q7iSDAU5Qc1QMQp-5" edge="1">
          <mxGeometry relative="1" as="geometry" />
        </mxCell>
        <mxCell id="dmKN5q7iSDAU5Qc1QMQp-2" value="拖拽单个块" style="whiteSpace=wrap;html=1;" parent="dmKN5q7iSDAU5Qc1QMQp-1" vertex="1">
          <mxGeometry x="290" y="140" width="120" height="60" as="geometry" />
        </mxCell>
        <mxCell id="KCohR-afpF4vjvtAX7LV-11" value="" style="edgeStyle=orthogonalEdgeStyle;rounded=0;orthogonalLoop=1;jettySize=auto;html=1;" parent="dmKN5q7iSDAU5Qc1QMQp-1" source="dmKN5q7iSDAU5Qc1QMQp-5" target="KCohR-afpF4vjvtAX7LV-10" edge="1">
          <mxGeometry relative="1" as="geometry" />
        </mxCell>
        <mxCell id="63hhbdDPUBGtZ07ph6DM-0" value="Yes" style="edgeLabel;html=1;align=center;verticalAlign=middle;resizable=0;points=[];" parent="KCohR-afpF4vjvtAX7LV-11" vertex="1" connectable="0">
          <mxGeometry x="0.0207" y="-2" relative="1" as="geometry">
            <mxPoint as="offset" />
          </mxGeometry>
        </mxCell>
        <mxCell id="63hhbdDPUBGtZ07ph6DM-23" value="" style="edgeStyle=orthogonalEdgeStyle;rounded=0;orthogonalLoop=1;jettySize=auto;html=1;" parent="dmKN5q7iSDAU5Qc1QMQp-1" source="dmKN5q7iSDAU5Qc1QMQp-5" target="63hhbdDPUBGtZ07ph6DM-22" edge="1">
          <mxGeometry relative="1" as="geometry" />
        </mxCell>
        <mxCell id="63hhbdDPUBGtZ07ph6DM-28" value="No" style="edgeLabel;html=1;align=center;verticalAlign=middle;resizable=0;points=[];" parent="63hhbdDPUBGtZ07ph6DM-23" vertex="1" connectable="0">
          <mxGeometry x="-0.0947" y="2" relative="1" as="geometry">
            <mxPoint as="offset" />
          </mxGeometry>
        </mxCell>
        <mxCell id="dmKN5q7iSDAU5Qc1QMQp-5" value="拖拽块是否&lt;br&gt;包含视觉资源" style="rhombus;whiteSpace=wrap;html=1;" parent="dmKN5q7iSDAU5Qc1QMQp-1" vertex="1">
          <mxGeometry x="295" y="280" width="110" height="90" as="geometry" />
        </mxCell>
        <mxCell id="63hhbdDPUBGtZ07ph6DM-6" value="" style="edgeStyle=orthogonalEdgeStyle;rounded=0;orthogonalLoop=1;jettySize=auto;html=1;" parent="dmKN5q7iSDAU5Qc1QMQp-1" source="KCohR-afpF4vjvtAX7LV-2" target="63hhbdDPUBGtZ07ph6DM-5" edge="1">
          <mxGeometry relative="1" as="geometry" />
        </mxCell>
        <mxCell id="63hhbdDPUBGtZ07ph6DM-7" value="No" style="edgeLabel;html=1;align=center;verticalAlign=middle;resizable=0;points=[];" parent="63hhbdDPUBGtZ07ph6DM-6" vertex="1" connectable="0">
          <mxGeometry x="-0.24" y="-1" relative="1" as="geometry">
            <mxPoint y="1" as="offset" />
          </mxGeometry>
        </mxCell>
        <mxCell id="02J0k29qTCWWc6wI6qlb-8" value="" style="edgeStyle=orthogonalEdgeStyle;rounded=0;orthogonalLoop=1;jettySize=auto;html=1;entryX=0.5;entryY=0;entryDx=0;entryDy=0;" edge="1" parent="dmKN5q7iSDAU5Qc1QMQp-1" source="KCohR-afpF4vjvtAX7LV-2" target="02J0k29qTCWWc6wI6qlb-7">
          <mxGeometry relative="1" as="geometry">
            <mxPoint x="670" y="560" as="targetPoint" />
          </mxGeometry>
        </mxCell>
        <mxCell id="02J0k29qTCWWc6wI6qlb-11" value="Yes" style="edgeLabel;html=1;align=center;verticalAlign=middle;resizable=0;points=[];" vertex="1" connectable="0" parent="02J0k29qTCWWc6wI6qlb-8">
          <mxGeometry x="-0.1656" y="-1" relative="1" as="geometry">
            <mxPoint as="offset" />
          </mxGeometry>
        </mxCell>
        <mxCell id="KCohR-afpF4vjvtAX7LV-2" value="鼠标在主轨道&lt;br&gt;以及以上区域" style="rhombus;whiteSpace=wrap;html=1;" parent="dmKN5q7iSDAU5Qc1QMQp-1" vertex="1">
          <mxGeometry x="630" y="445.25" width="120" height="80" as="geometry" />
        </mxCell>
        <mxCell id="63hhbdDPUBGtZ07ph6DM-32" value="" style="edgeStyle=orthogonalEdgeStyle;rounded=0;orthogonalLoop=1;jettySize=auto;html=1;exitX=0.5;exitY=1;exitDx=0;exitDy=0;" parent="dmKN5q7iSDAU5Qc1QMQp-1" source="KCohR-afpF4vjvtAX7LV-10" target="63hhbdDPUBGtZ07ph6DM-31" edge="1">
          <mxGeometry relative="1" as="geometry">
            <mxPoint x="350" y="580" as="sourcePoint" />
          </mxGeometry>
        </mxCell>
        <mxCell id="63hhbdDPUBGtZ07ph6DM-33" value="Yes" style="edgeLabel;html=1;align=center;verticalAlign=middle;resizable=0;points=[];" parent="63hhbdDPUBGtZ07ph6DM-32" vertex="1" connectable="0">
          <mxGeometry x="-0.0788" y="-2" relative="1" as="geometry">
            <mxPoint as="offset" />
          </mxGeometry>
        </mxCell>
        <mxCell id="63hhbdDPUBGtZ07ph6DM-35" value="" style="edgeStyle=orthogonalEdgeStyle;rounded=0;orthogonalLoop=1;jettySize=auto;html=1;" parent="dmKN5q7iSDAU5Qc1QMQp-1" source="KCohR-afpF4vjvtAX7LV-10" target="63hhbdDPUBGtZ07ph6DM-34" edge="1">
          <mxGeometry relative="1" as="geometry" />
        </mxCell>
        <mxCell id="63hhbdDPUBGtZ07ph6DM-36" value="No" style="edgeLabel;html=1;align=center;verticalAlign=middle;resizable=0;points=[];" parent="63hhbdDPUBGtZ07ph6DM-35" vertex="1" connectable="0">
          <mxGeometry x="0.0889" relative="1" as="geometry">
            <mxPoint as="offset" />
          </mxGeometry>
        </mxCell>
        <mxCell id="KCohR-afpF4vjvtAX7LV-10" value="&lt;span&gt;鼠标在主轨道&lt;/span&gt;&lt;br&gt;&lt;span&gt;以及以上区域&lt;/span&gt;" style="rhombus;whiteSpace=wrap;html=1;" parent="dmKN5q7iSDAU5Qc1QMQp-1" vertex="1">
          <mxGeometry x="295" y="431.25" width="110" height="107.5" as="geometry" />
        </mxCell>
        <mxCell id="63hhbdDPUBGtZ07ph6DM-3" value="移动资源到&lt;br&gt;空位置" style="whiteSpace=wrap;html=1;" parent="dmKN5q7iSDAU5Qc1QMQp-1" vertex="1">
          <mxGeometry x="630" y="726" width="120" height="60" as="geometry" />
        </mxCell>
        <mxCell id="63hhbdDPUBGtZ07ph6DM-10" value="" style="edgeStyle=orthogonalEdgeStyle;rounded=0;orthogonalLoop=1;jettySize=auto;html=1;" parent="dmKN5q7iSDAU5Qc1QMQp-1" source="63hhbdDPUBGtZ07ph6DM-5" target="63hhbdDPUBGtZ07ph6DM-9" edge="1">
          <mxGeometry relative="1" as="geometry" />
        </mxCell>
        <mxCell id="63hhbdDPUBGtZ07ph6DM-43" value="Yes" style="edgeLabel;html=1;align=center;verticalAlign=middle;resizable=0;points=[];" parent="63hhbdDPUBGtZ07ph6DM-10" vertex="1" connectable="0">
          <mxGeometry x="-0.1125" relative="1" as="geometry">
            <mxPoint as="offset" />
          </mxGeometry>
        </mxCell>
        <mxCell id="63hhbdDPUBGtZ07ph6DM-12" value="" style="edgeStyle=orthogonalEdgeStyle;rounded=0;orthogonalLoop=1;jettySize=auto;html=1;" parent="dmKN5q7iSDAU5Qc1QMQp-1" source="63hhbdDPUBGtZ07ph6DM-5" target="63hhbdDPUBGtZ07ph6DM-11" edge="1">
          <mxGeometry relative="1" as="geometry" />
        </mxCell>
        <mxCell id="63hhbdDPUBGtZ07ph6DM-19" value="No" style="edgeLabel;html=1;align=center;verticalAlign=middle;resizable=0;points=[];" parent="63hhbdDPUBGtZ07ph6DM-12" vertex="1" connectable="0">
          <mxGeometry x="-0.1429" y="2" relative="1" as="geometry">
            <mxPoint y="1" as="offset" />
          </mxGeometry>
        </mxCell>
        <mxCell id="63hhbdDPUBGtZ07ph6DM-5" value="鼠标在听觉&lt;br&gt;轨道内" style="rhombus;whiteSpace=wrap;html=1;" parent="dmKN5q7iSDAU5Qc1QMQp-1" vertex="1">
          <mxGeometry x="830" y="445.25" width="100" height="80" as="geometry" />
        </mxCell>
        <mxCell id="63hhbdDPUBGtZ07ph6DM-16" value="" style="edgeStyle=orthogonalEdgeStyle;rounded=0;orthogonalLoop=1;jettySize=auto;html=1;" parent="dmKN5q7iSDAU5Qc1QMQp-1" source="63hhbdDPUBGtZ07ph6DM-9" target="63hhbdDPUBGtZ07ph6DM-15" edge="1">
          <mxGeometry relative="1" as="geometry" />
        </mxCell>
        <mxCell id="63hhbdDPUBGtZ07ph6DM-20" value="No" style="edgeLabel;html=1;align=center;verticalAlign=middle;resizable=0;points=[];" parent="63hhbdDPUBGtZ07ph6DM-16" vertex="1" connectable="0">
          <mxGeometry x="-0.15" y="3" relative="1" as="geometry">
            <mxPoint y="1" as="offset" />
          </mxGeometry>
        </mxCell>
        <mxCell id="63hhbdDPUBGtZ07ph6DM-18" value="" style="edgeStyle=orthogonalEdgeStyle;rounded=0;orthogonalLoop=1;jettySize=auto;html=1;entryX=0.5;entryY=0;entryDx=0;entryDy=0;" parent="dmKN5q7iSDAU5Qc1QMQp-1" source="63hhbdDPUBGtZ07ph6DM-9" target="63hhbdDPUBGtZ07ph6DM-17" edge="1">
          <mxGeometry relative="1" as="geometry">
            <mxPoint x="880" y="816.5" as="targetPoint" />
          </mxGeometry>
        </mxCell>
        <mxCell id="63hhbdDPUBGtZ07ph6DM-21" value="Yes" style="edgeLabel;html=1;align=center;verticalAlign=middle;resizable=0;points=[];" parent="63hhbdDPUBGtZ07ph6DM-18" vertex="1" connectable="0">
          <mxGeometry x="-0.1" y="-2" relative="1" as="geometry">
            <mxPoint as="offset" />
          </mxGeometry>
        </mxCell>
        <mxCell id="63hhbdDPUBGtZ07ph6DM-9" value="是否有资源&lt;br&gt;重叠" style="rhombus;whiteSpace=wrap;html=1;" parent="dmKN5q7iSDAU5Qc1QMQp-1" vertex="1">
          <mxGeometry x="835" y="646.5" width="90" height="80" as="geometry" />
        </mxCell>
        <mxCell id="63hhbdDPUBGtZ07ph6DM-11" value="最下方新加听觉轨道&lt;br&gt;加入资源" style="whiteSpace=wrap;html=1;" parent="dmKN5q7iSDAU5Qc1QMQp-1" vertex="1">
          <mxGeometry x="1000" y="455.25" width="120" height="60" as="geometry" />
        </mxCell>
        <mxCell id="63hhbdDPUBGtZ07ph6DM-15" value="移动资源到该位置" style="whiteSpace=wrap;html=1;" parent="dmKN5q7iSDAU5Qc1QMQp-1" vertex="1">
          <mxGeometry x="1000" y="656.5" width="120" height="60" as="geometry" />
        </mxCell>
        <mxCell id="63hhbdDPUBGtZ07ph6DM-17" value="上方新加听觉轨道&lt;br&gt;加入资源" style="whiteSpace=wrap;html=1;" parent="dmKN5q7iSDAU5Qc1QMQp-1" vertex="1">
          <mxGeometry x="820" y="794" width="120" height="60" as="geometry" />
        </mxCell>
        <mxCell id="63hhbdDPUBGtZ07ph6DM-24" value="" style="edgeStyle=orthogonalEdgeStyle;rounded=0;orthogonalLoop=1;jettySize=auto;html=1;" parent="dmKN5q7iSDAU5Qc1QMQp-1" source="63hhbdDPUBGtZ07ph6DM-22" target="KCohR-afpF4vjvtAX7LV-2" edge="1">
          <mxGeometry relative="1" as="geometry" />
        </mxCell>
        <mxCell id="63hhbdDPUBGtZ07ph6DM-29" value="Yes" style="edgeLabel;html=1;align=center;verticalAlign=middle;resizable=0;points=[];" parent="63hhbdDPUBGtZ07ph6DM-24" vertex="1" connectable="0">
          <mxGeometry x="-0.1484" y="1" relative="1" as="geometry">
            <mxPoint as="offset" />
          </mxGeometry>
        </mxCell>
        <mxCell id="63hhbdDPUBGtZ07ph6DM-26" value="" style="edgeStyle=orthogonalEdgeStyle;rounded=0;orthogonalLoop=1;jettySize=auto;html=1;" parent="dmKN5q7iSDAU5Qc1QMQp-1" source="63hhbdDPUBGtZ07ph6DM-22" target="63hhbdDPUBGtZ07ph6DM-25" edge="1">
          <mxGeometry relative="1" as="geometry" />
        </mxCell>
        <mxCell id="63hhbdDPUBGtZ07ph6DM-30" value="No" style="edgeLabel;html=1;align=center;verticalAlign=middle;resizable=0;points=[];" parent="63hhbdDPUBGtZ07ph6DM-26" vertex="1" connectable="0">
          <mxGeometry x="0.2" y="1" relative="1" as="geometry">
            <mxPoint x="-14" y="1" as="offset" />
          </mxGeometry>
        </mxCell>
        <mxCell id="63hhbdDPUBGtZ07ph6DM-22" value="是否包含&lt;br&gt;听觉资源" style="rhombus;whiteSpace=wrap;html=1;" parent="dmKN5q7iSDAU5Qc1QMQp-1" vertex="1">
          <mxGeometry x="650" y="284.75" width="80" height="80" as="geometry" />
        </mxCell>
        <mxCell id="63hhbdDPUBGtZ07ph6DM-25" value="不可能" style="whiteSpace=wrap;html=1;fillColor=#a20025;fontColor=#ffffff;strokeColor=#6F0000;" parent="dmKN5q7iSDAU5Qc1QMQp-1" vertex="1">
          <mxGeometry x="820" y="294.75" width="120" height="60" as="geometry" />
        </mxCell>
        <mxCell id="63hhbdDPUBGtZ07ph6DM-59" value="" style="edgeStyle=orthogonalEdgeStyle;rounded=0;orthogonalLoop=1;jettySize=auto;html=1;" parent="dmKN5q7iSDAU5Qc1QMQp-1" source="63hhbdDPUBGtZ07ph6DM-31" target="63hhbdDPUBGtZ07ph6DM-58" edge="1">
          <mxGeometry relative="1" as="geometry" />
        </mxCell>
        <mxCell id="63hhbdDPUBGtZ07ph6DM-60" value="Yes" style="edgeLabel;html=1;align=center;verticalAlign=middle;resizable=0;points=[];" parent="63hhbdDPUBGtZ07ph6DM-59" vertex="1" connectable="0">
          <mxGeometry x="-0.2" relative="1" as="geometry">
            <mxPoint as="offset" />
          </mxGeometry>
        </mxCell>
        <mxCell id="63hhbdDPUBGtZ07ph6DM-67" value="" style="edgeStyle=orthogonalEdgeStyle;rounded=0;orthogonalLoop=1;jettySize=auto;html=1;" parent="dmKN5q7iSDAU5Qc1QMQp-1" source="63hhbdDPUBGtZ07ph6DM-31" target="63hhbdDPUBGtZ07ph6DM-66" edge="1">
          <mxGeometry relative="1" as="geometry" />
        </mxCell>
        <mxCell id="02J0k29qTCWWc6wI6qlb-16" value="No" style="edgeLabel;html=1;align=center;verticalAlign=middle;resizable=0;points=[];" vertex="1" connectable="0" parent="63hhbdDPUBGtZ07ph6DM-67">
          <mxGeometry x="-0.1669" relative="1" as="geometry">
            <mxPoint as="offset" />
          </mxGeometry>
        </mxCell>
        <mxCell id="63hhbdDPUBGtZ07ph6DM-31" value="鼠标在&lt;br&gt;视觉轨道内" style="rhombus;whiteSpace=wrap;html=1;" parent="dmKN5q7iSDAU5Qc1QMQp-1" vertex="1">
          <mxGeometry x="300" y="636.25" width="100" height="80" as="geometry" />
        </mxCell>
        <mxCell id="63hhbdDPUBGtZ07ph6DM-38" value="" style="edgeStyle=orthogonalEdgeStyle;rounded=0;orthogonalLoop=1;jettySize=auto;html=1;exitX=0;exitY=0.5;exitDx=0;exitDy=0;" parent="dmKN5q7iSDAU5Qc1QMQp-1" source="02J0k29qTCWWc6wI6qlb-0" target="63hhbdDPUBGtZ07ph6DM-37" edge="1">
          <mxGeometry relative="1" as="geometry">
            <mxPoint x="-30" y="510" as="sourcePoint" />
          </mxGeometry>
        </mxCell>
        <mxCell id="63hhbdDPUBGtZ07ph6DM-41" value="No" style="edgeLabel;html=1;align=center;verticalAlign=middle;resizable=0;points=[];" parent="63hhbdDPUBGtZ07ph6DM-38" vertex="1" connectable="0">
          <mxGeometry x="-0.1333" relative="1" as="geometry">
            <mxPoint as="offset" />
          </mxGeometry>
        </mxCell>
        <mxCell id="63hhbdDPUBGtZ07ph6DM-40" value="" style="edgeStyle=orthogonalEdgeStyle;rounded=0;orthogonalLoop=1;jettySize=auto;html=1;" parent="dmKN5q7iSDAU5Qc1QMQp-1" source="63hhbdDPUBGtZ07ph6DM-34" target="63hhbdDPUBGtZ07ph6DM-39" edge="1">
          <mxGeometry relative="1" as="geometry" />
        </mxCell>
        <mxCell id="63hhbdDPUBGtZ07ph6DM-42" value="Yes" style="edgeLabel;html=1;align=center;verticalAlign=middle;resizable=0;points=[];" parent="63hhbdDPUBGtZ07ph6DM-40" vertex="1" connectable="0">
          <mxGeometry x="-0.15" y="-1" relative="1" as="geometry">
            <mxPoint as="offset" />
          </mxGeometry>
        </mxCell>
        <mxCell id="02J0k29qTCWWc6wI6qlb-1" value="" style="edgeStyle=orthogonalEdgeStyle;rounded=0;orthogonalLoop=1;jettySize=auto;html=1;" edge="1" parent="dmKN5q7iSDAU5Qc1QMQp-1" source="63hhbdDPUBGtZ07ph6DM-34" target="02J0k29qTCWWc6wI6qlb-0">
          <mxGeometry relative="1" as="geometry" />
        </mxCell>
        <mxCell id="02J0k29qTCWWc6wI6qlb-6" value="No" style="edgeLabel;html=1;align=center;verticalAlign=middle;resizable=0;points=[];" vertex="1" connectable="0" parent="02J0k29qTCWWc6wI6qlb-1">
          <mxGeometry x="-0.2871" y="1" relative="1" as="geometry">
            <mxPoint as="offset" />
          </mxGeometry>
        </mxCell>
        <mxCell id="63hhbdDPUBGtZ07ph6DM-34" value="&lt;span&gt;是否包含&lt;/span&gt;&lt;br&gt;&lt;span&gt;听觉资源&lt;/span&gt;" style="rhombus;whiteSpace=wrap;html=1;" parent="dmKN5q7iSDAU5Qc1QMQp-1" vertex="1">
          <mxGeometry x="130" y="445" width="80" height="80" as="geometry" />
        </mxCell>
        <mxCell id="63hhbdDPUBGtZ07ph6DM-37" value="最上方新加视觉轨道&lt;br&gt;并加入资源" style="whiteSpace=wrap;html=1;" parent="dmKN5q7iSDAU5Qc1QMQp-1" vertex="1">
          <mxGeometry x="-220" y="455.5" width="120" height="60" as="geometry" />
        </mxCell>
        <mxCell id="63hhbdDPUBGtZ07ph6DM-45" value="" style="edgeStyle=orthogonalEdgeStyle;rounded=0;orthogonalLoop=1;jettySize=auto;html=1;" parent="dmKN5q7iSDAU5Qc1QMQp-1" source="63hhbdDPUBGtZ07ph6DM-39" target="63hhbdDPUBGtZ07ph6DM-44" edge="1">
          <mxGeometry relative="1" as="geometry" />
        </mxCell>
        <mxCell id="63hhbdDPUBGtZ07ph6DM-48" value="Yes" style="edgeLabel;html=1;align=center;verticalAlign=middle;resizable=0;points=[];" parent="63hhbdDPUBGtZ07ph6DM-45" vertex="1" connectable="0">
          <mxGeometry x="-0.1" relative="1" as="geometry">
            <mxPoint as="offset" />
          </mxGeometry>
        </mxCell>
        <mxCell id="63hhbdDPUBGtZ07ph6DM-54" value="" style="edgeStyle=orthogonalEdgeStyle;rounded=0;orthogonalLoop=1;jettySize=auto;html=1;" parent="dmKN5q7iSDAU5Qc1QMQp-1" source="63hhbdDPUBGtZ07ph6DM-39" target="63hhbdDPUBGtZ07ph6DM-53" edge="1">
          <mxGeometry relative="1" as="geometry" />
        </mxCell>
        <mxCell id="63hhbdDPUBGtZ07ph6DM-55" value="No" style="edgeLabel;html=1;align=center;verticalAlign=middle;resizable=0;points=[];" parent="63hhbdDPUBGtZ07ph6DM-54" vertex="1" connectable="0">
          <mxGeometry x="-0.0667" y="1" relative="1" as="geometry">
            <mxPoint as="offset" />
          </mxGeometry>
        </mxCell>
        <mxCell id="63hhbdDPUBGtZ07ph6DM-39" value="&lt;span&gt;鼠标在听觉&lt;/span&gt;&lt;br&gt;&lt;span&gt;轨道内&lt;/span&gt;" style="rhombus;whiteSpace=wrap;html=1;" parent="dmKN5q7iSDAU5Qc1QMQp-1" vertex="1">
          <mxGeometry x="130" y="646.25" width="80" height="80" as="geometry" />
        </mxCell>
        <mxCell id="63hhbdDPUBGtZ07ph6DM-47" value="" style="edgeStyle=orthogonalEdgeStyle;rounded=0;orthogonalLoop=1;jettySize=auto;html=1;" parent="dmKN5q7iSDAU5Qc1QMQp-1" source="63hhbdDPUBGtZ07ph6DM-44" target="63hhbdDPUBGtZ07ph6DM-46" edge="1">
          <mxGeometry relative="1" as="geometry" />
        </mxCell>
        <mxCell id="63hhbdDPUBGtZ07ph6DM-49" value="Yes" style="edgeLabel;html=1;align=center;verticalAlign=middle;resizable=0;points=[];" parent="63hhbdDPUBGtZ07ph6DM-47" vertex="1" connectable="0">
          <mxGeometry x="-0.0444" y="-1" relative="1" as="geometry">
            <mxPoint as="offset" />
          </mxGeometry>
        </mxCell>
        <mxCell id="63hhbdDPUBGtZ07ph6DM-51" value="" style="edgeStyle=orthogonalEdgeStyle;rounded=0;orthogonalLoop=1;jettySize=auto;html=1;" parent="dmKN5q7iSDAU5Qc1QMQp-1" source="63hhbdDPUBGtZ07ph6DM-44" target="63hhbdDPUBGtZ07ph6DM-50" edge="1">
          <mxGeometry relative="1" as="geometry" />
        </mxCell>
        <mxCell id="63hhbdDPUBGtZ07ph6DM-52" value="No" style="edgeLabel;html=1;align=center;verticalAlign=middle;resizable=0;points=[];" parent="63hhbdDPUBGtZ07ph6DM-51" vertex="1" connectable="0">
          <mxGeometry x="-0.0667" y="-1" relative="1" as="geometry">
            <mxPoint as="offset" />
          </mxGeometry>
        </mxCell>
        <mxCell id="63hhbdDPUBGtZ07ph6DM-44" value="是否有资源&lt;br&gt;重叠" style="rhombus;whiteSpace=wrap;html=1;" parent="dmKN5q7iSDAU5Qc1QMQp-1" vertex="1">
          <mxGeometry x="125" y="784" width="90" height="80" as="geometry" />
        </mxCell>
        <mxCell id="63hhbdDPUBGtZ07ph6DM-46" value="&lt;span&gt;上方新加听觉轨道&lt;/span&gt;&lt;br&gt;加入听觉资源" style="whiteSpace=wrap;html=1;" parent="dmKN5q7iSDAU5Qc1QMQp-1" vertex="1">
          <mxGeometry x="110" y="929" width="120" height="60" as="geometry" />
        </mxCell>
        <mxCell id="63hhbdDPUBGtZ07ph6DM-50" value="加入听觉资源" style="whiteSpace=wrap;html=1;" parent="dmKN5q7iSDAU5Qc1QMQp-1" vertex="1">
          <mxGeometry x="-40" y="794" width="120" height="60" as="geometry" />
        </mxCell>
        <mxCell id="63hhbdDPUBGtZ07ph6DM-53" value="&lt;span&gt;最下方新加听觉轨道&lt;/span&gt;&lt;br&gt;&lt;span&gt;加入听觉资源&lt;/span&gt;" style="whiteSpace=wrap;html=1;" parent="dmKN5q7iSDAU5Qc1QMQp-1" vertex="1">
          <mxGeometry x="-40" y="656.25" width="120" height="60" as="geometry" />
        </mxCell>
        <mxCell id="63hhbdDPUBGtZ07ph6DM-62" value="" style="edgeStyle=orthogonalEdgeStyle;rounded=0;orthogonalLoop=1;jettySize=auto;html=1;" parent="dmKN5q7iSDAU5Qc1QMQp-1" source="63hhbdDPUBGtZ07ph6DM-58" target="63hhbdDPUBGtZ07ph6DM-61" edge="1">
          <mxGeometry relative="1" as="geometry" />
        </mxCell>
        <mxCell id="63hhbdDPUBGtZ07ph6DM-63" value="Yes" style="edgeLabel;html=1;align=center;verticalAlign=middle;resizable=0;points=[];" parent="63hhbdDPUBGtZ07ph6DM-62" vertex="1" connectable="0">
          <mxGeometry x="-0.0556" y="1" relative="1" as="geometry">
            <mxPoint y="1" as="offset" />
          </mxGeometry>
        </mxCell>
        <mxCell id="63hhbdDPUBGtZ07ph6DM-65" value="" style="edgeStyle=orthogonalEdgeStyle;rounded=0;orthogonalLoop=1;jettySize=auto;html=1;" parent="dmKN5q7iSDAU5Qc1QMQp-1" source="63hhbdDPUBGtZ07ph6DM-58" target="63hhbdDPUBGtZ07ph6DM-64" edge="1">
          <mxGeometry relative="1" as="geometry" />
        </mxCell>
        <mxCell id="02J0k29qTCWWc6wI6qlb-15" value="No" style="edgeLabel;html=1;align=center;verticalAlign=middle;resizable=0;points=[];" vertex="1" connectable="0" parent="63hhbdDPUBGtZ07ph6DM-65">
          <mxGeometry x="-0.1636" y="2" relative="1" as="geometry">
            <mxPoint y="1" as="offset" />
          </mxGeometry>
        </mxCell>
        <mxCell id="63hhbdDPUBGtZ07ph6DM-58" value="是否有资源&lt;br&gt;重叠" style="rhombus;whiteSpace=wrap;html=1;" parent="dmKN5q7iSDAU5Qc1QMQp-1" vertex="1">
          <mxGeometry x="305" y="784" width="90" height="80" as="geometry" />
        </mxCell>
        <mxCell id="63hhbdDPUBGtZ07ph6DM-61" value="上方新加视觉轨道&lt;br&gt;加入资源" style="whiteSpace=wrap;html=1;" parent="dmKN5q7iSDAU5Qc1QMQp-1" vertex="1">
          <mxGeometry x="290" y="929" width="120" height="60" as="geometry" />
        </mxCell>
        <mxCell id="63hhbdDPUBGtZ07ph6DM-64" value="移动资源到该位置" style="whiteSpace=wrap;html=1;" parent="dmKN5q7iSDAU5Qc1QMQp-1" vertex="1">
          <mxGeometry x="450" y="794" width="120" height="60" as="geometry" />
        </mxCell>
        <mxCell id="63hhbdDPUBGtZ07ph6DM-66" value="最上方新加视觉轨道&lt;br&gt;加入资源" style="whiteSpace=wrap;html=1;" parent="dmKN5q7iSDAU5Qc1QMQp-1" vertex="1">
          <mxGeometry x="450" y="646.75" width="120" height="60" as="geometry" />
        </mxCell>
        <mxCell id="02J0k29qTCWWc6wI6qlb-4" value="" style="edgeStyle=orthogonalEdgeStyle;rounded=0;orthogonalLoop=1;jettySize=auto;html=1;" edge="1" parent="dmKN5q7iSDAU5Qc1QMQp-1" source="02J0k29qTCWWc6wI6qlb-0" target="02J0k29qTCWWc6wI6qlb-3">
          <mxGeometry relative="1" as="geometry" />
        </mxCell>
        <mxCell id="02J0k29qTCWWc6wI6qlb-5" value="Yes" style="edgeLabel;html=1;align=center;verticalAlign=middle;resizable=0;points=[];" vertex="1" connectable="0" parent="02J0k29qTCWWc6wI6qlb-4">
          <mxGeometry x="-0.0986" relative="1" as="geometry">
            <mxPoint as="offset" />
          </mxGeometry>
        </mxCell>
        <mxCell id="02J0k29qTCWWc6wI6qlb-0" value="查询所有视觉轨道&lt;br&gt;是否有空位置" style="rhombus;whiteSpace=wrap;html=1;" vertex="1" parent="dmKN5q7iSDAU5Qc1QMQp-1">
          <mxGeometry x="-50" y="438" width="140" height="95" as="geometry" />
        </mxCell>
        <mxCell id="02J0k29qTCWWc6wI6qlb-3" value="移动资源到&lt;br&gt;空位置" style="whiteSpace=wrap;html=1;" vertex="1" parent="dmKN5q7iSDAU5Qc1QMQp-1">
          <mxGeometry x="-40" y="586.25" width="120" height="43.75" as="geometry" />
        </mxCell>
        <mxCell id="02J0k29qTCWWc6wI6qlb-9" value="" style="edgeStyle=orthogonalEdgeStyle;rounded=0;orthogonalLoop=1;jettySize=auto;html=1;exitX=0.5;exitY=1;exitDx=0;exitDy=0;" edge="1" parent="dmKN5q7iSDAU5Qc1QMQp-1" source="02J0k29qTCWWc6wI6qlb-7" target="63hhbdDPUBGtZ07ph6DM-3">
          <mxGeometry relative="1" as="geometry">
            <mxPoint x="670" y="650" as="sourcePoint" />
          </mxGeometry>
        </mxCell>
        <mxCell id="02J0k29qTCWWc6wI6qlb-10" value="Yes" style="edgeLabel;html=1;align=center;verticalAlign=middle;resizable=0;points=[];" vertex="1" connectable="0" parent="02J0k29qTCWWc6wI6qlb-9">
          <mxGeometry x="-0.2262" y="2" relative="1" as="geometry">
            <mxPoint as="offset" />
          </mxGeometry>
        </mxCell>
        <mxCell id="02J0k29qTCWWc6wI6qlb-13" value="" style="edgeStyle=orthogonalEdgeStyle;rounded=0;orthogonalLoop=1;jettySize=auto;html=1;" edge="1" parent="dmKN5q7iSDAU5Qc1QMQp-1" source="02J0k29qTCWWc6wI6qlb-7" target="02J0k29qTCWWc6wI6qlb-12">
          <mxGeometry relative="1" as="geometry" />
        </mxCell>
        <mxCell id="02J0k29qTCWWc6wI6qlb-14" value="No" style="edgeLabel;html=1;align=center;verticalAlign=middle;resizable=0;points=[];" vertex="1" connectable="0" parent="02J0k29qTCWWc6wI6qlb-13">
          <mxGeometry x="-0.1798" y="-1" relative="1" as="geometry">
            <mxPoint as="offset" />
          </mxGeometry>
        </mxCell>
        <mxCell id="02J0k29qTCWWc6wI6qlb-7" value="查询所有听觉轨道&lt;br&gt;是否有空位置" style="rhombus;whiteSpace=wrap;html=1;" vertex="1" parent="dmKN5q7iSDAU5Qc1QMQp-1">
          <mxGeometry x="622.5" y="566.25" width="135" height="83.75" as="geometry" />
        </mxCell>
        <mxCell id="02J0k29qTCWWc6wI6qlb-12" value="主轨道下方新建听觉&lt;br&gt;轨道，加入资源" style="whiteSpace=wrap;html=1;" vertex="1" parent="dmKN5q7iSDAU5Qc1QMQp-1">
          <mxGeometry x="450" y="578.12" width="120" height="60" as="geometry" />
        </mxCell>
      </root>
    </mxGraphModel>
  </diagram>
  <diagram name="第 3 页" id="rspYKJVWAD1M4ExKeRO1">
    <mxGraphModel dx="1598" dy="1216" grid="1" gridSize="10" guides="1" tooltips="1" connect="1" arrows="1" fold="1" page="1" pageScale="1" pageWidth="850" pageHeight="1100" math="0" shadow="0">
      <root>
        <mxCell id="PznN4jCgxBCzwFeOutJU-0" />
        <mxCell id="PznN4jCgxBCzwFeOutJU-1" parent="PznN4jCgxBCzwFeOutJU-0" />
      </root>
    </mxGraphModel>
  </diagram>
</mxfile>
